  0
SECTION
  2
HEADER
  9
$ACADVER
  1
AC1032
  9
$ACADMAINTVER
 90
        4
  9
$DWGCODEPAGE
  3
ANSI_1252
  9
$LASTSAVEDBY
  1
zakwi
  9
$REQUIREDVERSIONS
160
                 0
  9
$INSBASE
 10
0.0
 20
0.0
 30
0.0
  9
$EXTMIN
 10
-133.79782728597
 20
107.7282962352099
 30
0.0
  9
$EXTMAX
 10
1150.1631619383
 20
573.9362622095499
 30
0.0
  9
$LIMMIN
 10
0.0
 20
0.0
  9
$LIMMAX
 10
12.0
 20
9.0
  9
$ORTHOMODE
 70
     0
  9
$REGENMODE
 70
     1
  9
$FILLMODE
 70
     1
  9
$QTEXTMODE
 70
     0
  9
$MIRRTEXT
 70
     1
  9
$LTSCALE
 40
1.0
  9
$ATTMODE
 70
     1
  9
$TEXTSIZE
 40
2.5
  9
$TRACEWID
 40
0.05
  9
$TEXTSTYLE
  7
STANDARD
  9
$CLAYER
  8
0
  9
$CELTYPE
  6
BYBLOCK
  9
$CECOLOR
 62
   256
  9
$CELTSCALE
 40
1.0
  9
$DISPSILH
 70
     0
  9
$DIMSCALE
 40
1.0
  9
$DIMASZ
 40
0.18
  9
$DIMEXO
 40
0.0625
  9
$DIMDLI
 40
0.38
  9
$DIMRND
 40
0.0
  9
$DIMDLE
 40
0.0
  9
$DIMEXE
 40
0.18
  9
$DIMTP
 40
0.0
  9
$DIMTM
 40
0.0
  9
$DIMTXT
 40
0.18
  9
$DIMCEN
 40
0.09
  9
$DIMTSZ
 40
0.0
  9
$DIMTOL
 70
     0
  9
$DIMLIM
 70
     0
  9
$DIMTIH
 70
     1
  9
$DIMTOH
 70
     1
  9
$DIMSE1
 70
     0
  9
$DIMSE2
 70
     0
  9
$DIMTAD
 70
     0
  9
$DIMZIN
 70
     0
  9
$DIMBLK
  1

  9
$DIMASO
 70
     1
  9
$DIMSHO
 70
     1
  9
$DIMPOST
  1

  9
$DIMAPOST
  1

  9
$DIMALT
 70
     0
  9
$DIMALTD
 70
     2
  9
$DIMALTF
 40
25.4
  9
$DIMLFAC
 40
1.0
  9
$DIMTOFL
 70
     0
  9
$DIMTVP
 40
0.0
  9
$DIMTIX
 70
     0
  9
$DIMSOXD
 70
     0
  9
$DIMSAH
 70
     0
  9
$DIMBLK1
  1

  9
$DIMBLK2
  1

  9
$DIMSTYLE
  2
ISO-25
  9
$DIMCLRD
 70
     0
  9
$DIMCLRE
 70
     0
  9
$DIMCLRT
 70
     0
  9
$DIMTFAC
 40
1.0
  9
$DIMGAP
 40
0.09
  9
$DIMJUST
 70
     0
  9
$DIMSD1
 70
     0
  9
$DIMSD2
 70
     0
  9
$DIMTOLJ
 70
     1
  9
$DIMTZIN
 70
     0
  9
$DIMALTZ
 70
     0
  9
$DIMALTTZ
 70
     0
  9
$DIMUPT
 70
     0
  9
$DIMDEC
 70
     4
  9
$DIMTDEC
 70
     4
  9
$DIMALTU
 70
     2
  9
$DIMALTTD
 70
     2
  9
$DIMTXSTY
  7
STANDARD
  9
$DIMAUNIT
 70
     0
  9
$DIMADEC
 70
     0
  9
$DIMALTRND
 40
0.0
  9
$DIMAZIN
 70
     0
  9
$DIMDSEP
 70
    46
  9
$DIMATFIT
 70
     3
  9
$DIMFRAC
 70
     0
  9
$DIMLDRBLK
  1

  9
$DIMLUNIT
 70
     2
  9
$DIMLWD
 70
    -2
  9
$DIMLWE
 70
    -2
  9
$DIMTMOVE
 70
     2
  9
$DIMFXL
 40
1.0
  9
$DIMFXLON
 70
     0
  9
$DIMJOGANG
 40
0.7853981633974483
  9
$DIMTFILL
 70
     0
  9
$DIMTFILLCLR
 70
     0
  9
$DIMARCSYM
 70
     0
  9
$DIMLTYPE
  6

  9
$DIMLTEX1
  6

  9
$DIMLTEX2
  6

  9
$DIMTXTDIRECTION
 70
     0
  9
$LUNITS
 70
     2
  9
$LUPREC
 70
     4
  9
$SKETCHINC
 40
0.1
  9
$FILLETRAD
 40
0.5
  9
$AUNITS
 70
     0
  9
$AUPREC
 70
     0
  9
$MENU
  1
.
  9
$ELEVATION
 40
0.0
  9
$PELEVATION
 40
0.0
  9
$THICKNESS
 40
0.0
  9
$LIMCHECK
 70
     0
  9
$CHAMFERA
 40
0.0
  9
$CHAMFERB
 40
0.0
  9
$CHAMFERC
 40
0.0
  9
$CHAMFERD
 40
0.0
  9
$SKPOLY
 70
     0
  9
$TDCREATE
 40
2447893.041666667
  9
$TDUCREATE
 40
2447893.0
  9
$TDUPDATE
 40
2459472.834583681
  9
$TDUUPDATE
 40
2459472.792917014
  9
$TDINDWG
 40
0.0188872222
  9
$TDUSRTIMER
 40
0.0561792245
  9
$USRTIMER
 70
     1
  9
$ANGBASE
 50
0.0
  9
$ANGDIR
 70
     0
  9
$PDMODE
 70
     0
  9
$PDSIZE
 40
0.0
  9
$PLINEWID
 40
0.0
  9
$SPLFRAME
 70
     0
  9
$SPLINETYPE
 70
     6
  9
$SPLINESEGS
 70
     8
  9
$HANDSEED
  5
101C0
  9
$SURFTAB1
 70
     6
  9
$SURFTAB2
 70
     6
  9
$SURFTYPE
 70
     6
  9
$SURFU
 70
     6
  9
$SURFV
 70
     6
  9
$UCSBASE
  2

  9
$UCSNAME
  2

  9
$UCSORG
 10
0.0
 20
0.0
 30
0.0
  9
$UCSXDIR
 10
1.0
 20
0.0
 30
0.0
  9
$UCSYDIR
 10
0.0
 20
1.0
 30
0.0
  9
$UCSORTHOREF
  2

  9
$UCSORTHOVIEW
 70
     0
  9
$UCSORGTOP
 10
0.0
 20
0.0
 30
0.0
  9
$UCSORGBOTTOM
 10
0.0
 20
0.0
 30
0.0
  9
$UCSORGLEFT
 10
0.0
 20
0.0
 30
0.0
  9
$UCSORGRIGHT
 10
0.0
 20
0.0
 30
0.0
  9
$UCSORGFRONT
 10
0.0
 20
0.0
 30
0.0
  9
$UCSORGBACK
 10
0.0
 20
0.0
 30
0.0
  9
$PUCSBASE
  2

  9
$PUCSNAME
  2

  9
$PUCSORG
 10
0.0
 20
0.0
 30
0.0
  9
$PUCSXDIR
 10
1.0
 20
0.0
 30
0.0
  9
$PUCSYDIR
 10
0.0
 20
1.0
 30
0.0
  9
$PUCSORTHOREF
  2

  9
$PUCSORTHOVIEW
 70
     0
  9
$PUCSORGTOP
 10
0.0
 20
0.0
 30
0.0
  9
$PUCSORGBOTTOM
 10
0.0
 20
0.0
 30
0.0
  9
$PUCSORGLEFT
 10
0.0
 20
0.0
 30
0.0
  9
$PUCSORGRIGHT
 10
0.0
 20
0.0
 30
0.0
  9
$PUCSORGFRONT
 10
0.0
 20
0.0
 30
0.0
  9
$PUCSORGBACK
 10
0.0
 20
0.0
 30
0.0
  9
$USERI1
 70
     0
  9
$USERI2
 70
     0
  9
$USERI3
 70
     0
  9
$USERI4
 70
     0
  9
$USERI5
 70
     0
  9
$USERR1
 40
0.0
  9
$USERR2
 40
0.0
  9
$USERR3
 40
0.0
  9
$USERR4
 40
0.0
  9
$USERR5
 40
0.0
  9
$WORLDVIEW
 70
     1
  9
$SHADEDGE
 70
     3
  9
$SHADEDIF
 70
    70
  9
$TILEMODE
 70
     1
  9
$MAXACTVP
 70
    64
  9
$PINSBASE
 10
0.0
 20
0.0
 30
0.0
  9
$PLIMCHECK
 70
     0
  9
$PEXTMIN
 10
1.000000000000000E+20
 20
1.000000000000000E+20
 30
1.000000000000000E+20
  9
$PEXTMAX
 10
-1.000000000000000E+20
 20
-1.000000000000000E+20
 30
-1.000000000000000E+20
  9
$PLIMMIN
 10
0.0
 20
0.0
  9
$PLIMMAX
 10
0.0
 20
0.0
  9
$UNITMODE
 70
     0
  9
$VISRETAIN
 70
     1
  9
$PLINEGEN
 70
     0
  9
$PSLTSCALE
 70
     1
  9
$TREEDEPTH
 70
  3020
  9
$CMLSTYLE
  2
STANDARD
  9
$CMLJUST
 70
     0
  9
$CMLSCALE
 40
1.0
  9
$PROXYGRAPHICS
 70
     1
  9
$MEASUREMENT
 70
     1
  9
$CELWEIGHT
370
    -1
  9
$ENDCAPS
280
     0
  9
$JOINSTYLE
280
     0
  9
$LWDISPLAY
290
     0
  9
$INSUNITS
 70
     0
  9
$HYPERLINKBASE
  1

  9
$STYLESHEET
  1

  9
$XEDIT
290
     1
  9
$CEPSNTYPE
380
     0
  9
$PSTYLEMODE
290
     1
  9
$FINGERPRINTGUID
  2
{c0f92691-d9ed-43ac-bf9b-231ee0008e14}
  9
$VERSIONGUID
  2
{FAEB1C32-E019-11D5-929B-00C0DF256EC4}
  9
$EXTNAMES
290
     1
  9
$PSVPSCALE
 40
0.0
  9
$OLESTARTUP
290
     0
  9
$SORTENTS
280
   127
  9
$INDEXCTL
280
     0
  9
$HIDETEXT
280
     1
  9
$XCLIPFRAME
280
     2
  9
$HALOGAP
280
     0
  9
$OBSCOLOR
 70
   257
  9
$OBSLTYPE
280
     0
  9
$INTERSECTIONDISPLAY
280
     0
  9
$INTERSECTIONCOLOR
 70
   257
  9
$DIMASSOC
280
     2
  9
$PROJECTNAME
  1

  9
$CAMERADISPLAY
290
     0
  9
$LENSLENGTH
 40
50.0
  9
$CAMERAHEIGHT
 40
0.0
  9
$STEPSPERSEC
 40
2.0
  9
$STEPSIZE
 40
6.0
  9
$3DDWFPREC
 40
2.0
  9
$PSOLWIDTH
 40
0.25
  9
$PSOLHEIGHT
 40
4.0
  9
$LOFTANG1
 40
1.570796326794897
  9
$LOFTANG2
 40
1.570796326794897
  9
$LOFTMAG1
 40
0.0
  9
$LOFTMAG2
 40
0.0
  9
$LOFTPARAM
 70
     7
  9
$LOFTNORMALS
280
     1
  9
$LATITUDE
 40
37.795
  9
$LONGITUDE
 40
-122.394
  9
$NORTHDIRECTION
 40
0.0
  9
$TIMEZONE
 70
 -8000
  9
$LIGHTGLYPHDISPLAY
280
     1
  9
$TILEMODELIGHTSYNCH
280
     1
  9
$SOLIDHIST
280
     0
  9
$SHOWHIST
280
     1
  9
$DWFFRAME
280
     2
  9
$DGNFRAME
280
     2
  9
$REALWORLDSCALE
290
     1
  9
$INTERFERECOLOR
 62
   256
  9
$CSHADOW
280
     0
  9
$SHADOWPLANELOCATION
 40
0.0
  0
ENDSEC
  0
SECTION
  2
CLASSES
  0
CLASS
  1
ACDBDICTIONARYWDFLT
  2
AcDbDictionaryWithDefault
  3
ObjectDBX Classes
 90
        0
 91
        3
280
     0
281
     0
  0
CLASS
  1
SCALE
  2
AcDbScale
  3
ObjectDBX Classes
 90
     1153
 91
        3
280
     0
281
     0
  0
CLASS
  1
VISUALSTYLE
  2
AcDbVisualStyle
  3
ObjectDBX Classes
 90
     4095
 91
        3
280
     0
281
     0
  0
CLASS
  1
MATERIAL
  2
AcDbMaterial
  3
ObjectDBX Classes
 90
     1153
 91
        3
280
     0
281
     0
  0
CLASS
  1
TABLESTYLE
  2
AcDbTableStyle
  3
ObjectDBX Classes
 90
     4095
 91
        3
280
     0
281
     0
  0
CLASS
  1
MLEADERSTYLE
  2
AcDbMLeaderStyle
  3
ACDB_MLEADERSTYLE_CLASS
 90
     4095
 91
        3
280
     0
281
     0
  0
CLASS
  1
DICTIONARYVAR
  2
AcDbDictionaryVar
  3
ObjectDBX Classes
 90
        0
 91
        3
280
     0
281
     0
  0
CLASS
  1
XRECORD
  2
AcDbXrecord
  3
ObjectDBX Classes
 90
        0
 91
        1
280
     0
281
     0
  0
CLASS
  1
LWPOLYLINE
  2
AcDbPolyline
  3
ObjectDBX Classes
 90
        0
 91
        1
280
     0
281
     1
  0
CLASS
  1
HATCH
  2
AcDbHatch
  3
ObjectDBX Classes
 90
        0
 91
        1
280
     0
281
     1
  0
CLASS
  1
DIMASSOC
  2
AcDbDimAssoc
  3
"AcDbDimAssoc|Product Desc:     AcDim ARX App For Dimension|Company:          Autodesk, Inc.|WEB Address:      www.autodesk.com"
 90
        0
 91
        3
280
     0
281
     0
  0
CLASS
  1
BREAKDATA
  2
AcDbBreakData
  3
ObjectDBX Classes
 90
     1024
 91
        3
280
     0
281
     0
  0
CLASS
  1
CELLSTYLEMAP
  2
AcDbCellStyleMap
  3
ObjectDBX Classes
 90
     1152
 91
        3
280
     0
281
     0
  0
CLASS
  1
SUN
  2
AcDbSun
  3
SCENEOE
 90
     1153
 91
        3
280
     0
281
     0
  0
ENDSEC
  0
SECTION
  2
TABLES
  0
TABLE
  2
VPORT
  5
8
330
0
100
AcDbSymbolTable
 70
     1
  0
VPORT
  5
2E
330
8
100
AcDbSymbolTableRecord
100
AcDbViewportTableRecord
  2
*ACTIVE
 70
     0
 10
0.0
 20
0.0
 11
1.0
 21
1.0
 12
288.2578481927252
 22
378.1920641469025
 13
0.0
 23
0.0
 14
10.0
 24
10.0
 15
10.0
 25
10.0
 16
0.0
 26
0.0
 36
1.0
 17
0.0
 27
0.0
 37
0.0
 40
340.999999999993
 41
2.222222222222222
 42
50.0
 43
0.0
 44
0.0
 50
0.0
 51
0.0
 71
    16
 72
   100
 73
     1
 74
     3
 75
     0
 76
     1
 77
     0
 78
     0
281
     0
 65
     1
110
0.0
120
0.0
130
0.0
111
1.0
121
0.0
131
0.0
112
0.0
122
1.0
132
0.0
 79
     0
146
0.0
348
10155
 60
     3
 61
     5
292
     1
282
     1
141
0.0
142
0.0
 63
   256
361
1018F
  0
ENDTAB
  0
TABLE
  2
LTYPE
  5
5
330
0
100
AcDbSymbolTable
 70
     1
  0
LTYPE
  5
14
330
5
100
AcDbSymbolTableRecord
100
AcDbLinetypeTableRecord
  2
BYBLOCK
 70
     0
  3

 72
    65
 73
     0
 40
0.0
  0
LTYPE
  5
15
330
5
100
AcDbSymbolTableRecord
100
AcDbLinetypeTableRecord
  2
BYLAYER
 70
     0
  3

 72
    65
 73
     0
 40
0.0
  0
LTYPE
  5
16
330
5
100
AcDbSymbolTableRecord
100
AcDbLinetypeTableRecord
  2
CONTINUOUS
 70
     0
  3
Solid line
 72
    65
 73
     0
 40
0.0
  0
ENDTAB
  0
TABLE
  2
LAYER
  5
2
330
0
100
AcDbSymbolTable
 70
     2
  0
LAYER
  5
50
330
2
100
AcDbSymbolTableRecord
100
AcDbLayerTableRecord
  2
0
 70
     0
 62
     7
  6
CONTINUOUS
370
    -3
390
1012A
347
1016C
348
0
  0
LAYER
  5
51
330
2
100
AcDbSymbolTableRecord
100
AcDbLayerTableRecord
  2
LAYER_1
 70
     0
 62
     7
  6
CONTINUOUS
370
    -3
390
1012A
347
1016C
348
0
  0
ENDTAB
  0
TABLE
  2
STYLE
  5
3
330
0
100
AcDbSymbolTable
 70
     1
  0
STYLE
  5
11
330
3
100
AcDbSymbolTableRecord
100
AcDbTextStyleTableRecord
  2
STANDARD
 70
     0
 40
0.0
 41
1.0
 50
0.0
 71
     0
 42
2.5
  3
txt
  4

  0
ENDTAB
  0
TABLE
  2
VIEW
  5
6
330
0
100
AcDbSymbolTable
 70
     0
  0
ENDTAB
  0
TABLE
  2
UCS
  5
7
330
0
100
AcDbSymbolTable
 70
     0
  0
ENDTAB
  0
TABLE
  2
APPID
  5
9
330
0
100
AcDbSymbolTable
 70
     1
  0
APPID
  5
12
330
9
100
AcDbSymbolTableRecord
100
AcDbRegAppTableRecord
  2
ACAD
 70
     0
  0
ENDTAB
  0
TABLE
  2
DIMSTYLE
  5
A
330
0
100
AcDbSymbolTable
 70
     1
100
AcDbDimStyleTable
  0
DIMSTYLE
105
27
330
A
100
AcDbSymbolTableRecord
100
AcDbDimStyleTableRecord
  2
ISO-25
 70
     0
 41
2.5
 42
0.625
 43
3.75
 44
1.25
 73
     0
 74
     0
 77
     1
 78
     8
140
2.5
141
2.5
143
0.03937007874016
147
0.625
171
     3
172
     1
178
     0
271
     2
272
     2
274
     3
283
     0
284
     8
340
11
  0
ENDTAB
  0
TABLE
  2
BLOCK_RECORD
  5
1
330
0
100
AcDbSymbolTable
 70
     0
  0
BLOCK_RECORD
  5
1F
102
{ACAD_XDICTIONARY
360
10060
102
}
330
1
100
AcDbSymbolTableRecord
100
AcDbBlockTableRecord
  2
*MODEL_SPACE
340
1014E
 70
     0
280
     1
281
     0
  0
BLOCK_RECORD
  5
1B
330
1
100
AcDbSymbolTableRecord
100
AcDbBlockTableRecord
  2
*PAPER_SPACE
340
1014F
 70
     0
280
     1
281
     0
  0
ENDTAB
  0
ENDSEC
  0
SECTION
  2
BLOCKS
  0
BLOCK
  5
20
330
1F
100
AcDbEntity
  8
0
100
AcDbBlockBegin
  2
*MODEL_SPACE
 70
     0
 10
0.0
 20
0.0
 30
0.0
  3
*MODEL_SPACE
  1

  0
ENDBLK
  5
21
330
1F
100
AcDbEntity
  8
0
100
AcDbBlockEnd
  0
BLOCK
  5
1C
330
1B
100
AcDbEntity
 67
     1
  8
0
100
AcDbBlockBegin
  2
*PAPER_SPACE
 70
     0
 10
0.0
 20
0.0
 30
0.0
  3
*PAPER_SPACE
  1

  0
ENDBLK
  5
1D
330
1B
100
AcDbEntity
 67
     1
  8
0
100
AcDbBlockEnd
  0
ENDSEC
  0
SECTION
  2
ENTITIES
  0
SPLINE
  5
100
330
1F
100
AcDbEntity
  8
LAYER_1
 62
     3
100
AcDbSpline
210
0.0
220
0.0
230
1.0
 70
     8
 71
     3
 72
     8
 73
     4
 74
     0
 42
0.000000001
 43
0.0000001
 40
0.0
 40
0.0
 40
0.0
 40
0.0
 40
1.0
 40
1.0
 40
1.0
 40
1.0
 10
730.71193923187
 20
288.97990557693
 30
0.0
 10
940.43875436539
 20
336.4512143456999
 30
0.0
 10
1150.1652028845
 20
383.92243240575
 30
0.0
 10
1150.1631619383
 20
431.3940397573899
 30
0.0
  0
SPLINE
  5
101
330
1F
100
AcDbEntity
  8
LAYER_1
 62
     3
100
AcDbSpline
210
0.0
220
0.0
230
1.0
 70
     8
 71
     3
 72
     8
 73
     4
 74
     0
 42
0.000000001
 43
0.0000001
 40
0.0
 40
0.0
 40
0.0
 40
0.0
 40
1.0
 40
1.0
 40
1.0
 40
1.0
 10
1150.1631619383
 20
431.3940397573899
 30
0.0
 10
1150.1611209921
 20
478.8656584476201
 30
0.0
 10
940.43887531035
 20
526.33593162517
 30
0.0
 10
730.71193923187
 20
573.80726307112
 30
0.0
  0
SPLINE
  5
102
330
1F
100
AcDbEntity
  8
LAYER_1
 62
     5
100
AcDbSpline
210
0.0
220
0.0
230
1.0
 70
     8
 71
     3
 72
     8
 73
     4
 74
     0
 42
0.000000001
 43
0.0000001
 40
0.0
 40
0.0
 40
0.0
 40
0.0
 40
1.0
 40
1.0
 40
1.0
 40
1.0
 10
1127.10076468164
 20
435.55391897941
 30
0.0
 10
1125.33418968246
 20
435.55391897941
 30
0.0
 10
1123.741563772
 20
434.4897620716699
 30
0.0
 10
1123.06552679996
 20
432.8576589703599
 30
0.0
  0
SPLINE
  5
103
330
1F
100
AcDbEntity
  8
LAYER_1
 62
     5
100
AcDbSpline
210
0.0
220
0.0
230
1.0
 70
     8
 71
     3
 72
     8
 73
     4
 74
     0
 42
0.000000001
 43
0.0000001
 40
0.0
 40
0.0
 40
0.0
 40
0.0
 40
1.0
 40
1.0
 40
1.0
 40
1.0
 10
1123.06552679996
 20
432.8576589703599
 30
0.0
 10
1122.38948982792
 20
431.2255558690499
 30
0.0
 10
1122.76317195902
 20
429.34692914396
 30
0.0
 10
1124.01232552167
 20
428.0977718017799
 30
0.0
  0
SPLINE
  5
104
330
1F
100
AcDbEntity
  8
LAYER_1
 62
     5
100
AcDbSpline
210
0.0
220
0.0
230
1.0
 70
     8
 71
     3
 72
     8
 73
     4
 74
     0
 42
0.000000001
 43
0.0000001
 40
0.0
 40
0.0
 40
0.0
 40
0.0
 40
1.0
 40
1.0
 40
1.0
 40
1.0
 10
1124.01232552167
 20
428.0977718017799
 30
0.0
 10
1125.26148286385
 20
426.8486144596001
 30
0.0
 10
1127.14011336847
 20
426.4749323284999
 30
0.0
 10
1128.77221269025
 20
427.1509693005401
 30
0.0
  0
SPLINE
  5
105
330
1F
100
AcDbEntity
  8
LAYER_1
 62
     5
100
AcDbSpline
210
0.0
220
0.0
230
1.0
 70
     8
 71
     3
 72
     8
 73
     4
 74
     0
 42
0.000000001
 43
0.0000001
 40
0.0
 40
0.0
 40
0.0
 40
0.0
 40
1.0
 40
1.0
 40
1.0
 40
1.0
 10
1128.77221269025
 20
427.1509693005401
 30
0.0
 10
1130.40431579156
 20
427.8270100521099
 30
0.0
 10
1131.4684726993
 20
429.4196359625701
 30
0.0
 10
1131.4684726993
 20
431.1862071822201
 30
0.0
  0
SPLINE
  5
106
330
1F
100
AcDbEntity
  8
LAYER_1
 62
     5
100
AcDbSpline
210
0.0
220
0.0
230
1.0
 70
     8
 71
     3
 72
     8
 73
     4
 74
     0
 42
0.000000001
 43
0.0000001
 40
0.0
 40
0.0
 40
0.0
 40
0.0
 40
1.0
 40
1.0
 40
1.0
 40
1.0
 10
1131.4684726993
 20
431.1862071822201
 30
0.0
 10
1131.4684726993
 20
432.34459911145
 30
0.0
 10
1131.00830736274
 20
433.4555428210599
 30
0.0
 10
1130.18920006208
 20
434.27464634219
 30
0.0
  0
SPLINE
  5
107
330
1F
100
AcDbEntity
  8
LAYER_1
 62
     5
100
AcDbSpline
210
0.0
220
0.0
230
1.0
 70
     8
 71
     3
 72
     8
 73
     4
 74
     0
 42
0.000000001
 43
0.0000001
 40
0.0
 40
0.0
 40
0.0
 40
0.0
 40
1.0
 40
1.0
 40
1.0
 40
1.0
 10
1130.18920006208
 20
434.27464634219
 30
0.0
 10
1129.37009654095
 20
435.09374986332
 30
0.0
 10
1128.25915283134
 20
435.55391897941
 30
0.0
 10
1127.10076468164
 20
435.55391897941
 30
0.0
  0
LWPOLYLINE
  5
108
330
1F
100
AcDbEntity
  8
LAYER_1
 62
     5
100
AcDbPolyline
 90
        2
 70
     1
 43
0.0
 10
1127.10076468164
 20
435.55391897941
 10
1127.10076468164
 20
435.55391897941
  0
LWPOLYLINE
  5
109
330
1F
100
AcDbEntity
  8
LAYER_1
 62
     5
100
AcDbPolyline
 90
        4
 70
     1
 43
0.0
 10
730.56501000312
 20
451.30392726152
 10
735.30042849448
 20
451.30392726152
 10
735.30042849448
 20
411.56849624474
 10
730.56501000312
 20
411.56849624474
  0
LWPOLYLINE
  5
10A
330
1F
100
AcDbEntity
  8
LAYER_1
 62
     3
100
AcDbPolyline
 90
        2
 70
     0
 43
0.0
 10
713.2191443124
 20
289.06500169488
 10
731.0386994277179
 20
289.0538671995
  0
LWPOLYLINE
  5
10B
330
1F
100
AcDbEntity
  8
LAYER_1
 62
     5
100
AcDbPolyline
 90
        2
 70
     0
 43
0.0
 10
650.8082571268153
 20
552.7784845610228
 10
650.8149918837601
 20
573.9362622095499
  0
LWPOLYLINE
  5
10C
330
1F
100
AcDbEntity
  8
LAYER_1
 62
     3
100
AcDbPolyline
 90
        2
 70
     0
 43
0.0
 10
650.68268943611
 20
573.80397110049
 10
668.2123478423241
 20
573.8039942354364
  0
LWPOLYLINE
  5
10E
330
1F
100
AcDbEntity
  8
LAYER_1
 62
     5
100
AcDbPolyline
 90
        4
 70
     0
 43
0.0
 10
650.8207144232094
 20
309.4311376458561
 10
646.0857079006194
 20
309.4311376458561
 10
646.0857079006194
 20
409.1661727666857
 10
650.8207144232094
 20
409.1661727666857
  0
LWPOLYLINE
  5
10F
330
1F
100
AcDbEntity
  8
LAYER_1
 62
     3
100
AcDbPolyline
 90
        2
 70
     0
 43
0.0
 10
423.80830921238
 20
289.06167948801
 10
365.5503465481
 20
289.0538671995
  0
SPLINE
  5
110
330
1F
100
AcDbEntity
  8
LAYER_1
 62
     3
100
AcDbSpline
210
0.0
220
0.0
230
1.0
 70
     8
 71
     3
 72
     8
 73
     4
 74
     0
 42
0.000000001
 43
0.0000001
 40
0.0
 40
0.0
 40
0.0
 40
0.0
 40
1.0
 40
1.0
 40
1.0
 40
1.0
 10
285.65339542046
 20
288.97990557693
 30
0.0
 10
75.92658028693995
 20
336.4512143456999
 30
0.0
 10
-133.7998644526401
 20
383.92243240575
 30
0.0
 10
-133.7978272859701
 20
431.3940397573899
 30
0.0
  0
SPLINE
  5
111
330
1F
100
AcDbEntity
  8
LAYER_1
 62
     3
100
AcDbSpline
210
0.0
220
0.0
230
1.0
 70
     8
 71
     3
 72
     8
 73
     4
 74
     0
 42
0.000000001
 43
0.0000001
 40
0.0
 40
0.0
 40
0.0
 40
0.0
 40
1.0
 40
1.0
 40
1.0
 40
1.0
 10
-133.7978272859701
 20
431.3940397573899
 30
0.0
 10
-133.7957863397701
 20
478.8656584476201
 30
0.0
 10
75.92645934197992
 20
526.33593162517
 30
0.0
 10
285.65339542046
 20
573.80726307112
 30
0.0
  0
SPLINE
  5
112
102
{ACAD_REACTORS
330
101B9
330
101BA
330
101BC
102
}
330
1F
100
AcDbEntity
  8
LAYER_1
 62
     5
100
AcDbSpline
210
0.0
220
0.0
230
1.0
 70
     8
 71
     3
 72
     8
 73
     4
 74
     0
 42
0.000000001
 43
0.0000001
 40
0.0
 40
0.0
 40
0.0
 40
0.0
 40
1.0
 40
1.0
 40
1.0
 40
1.0
 10
-85.42698441952882
 20
435.9322519764271
 30
0.0
 10
-83.66040942034891
 20
435.9322519764271
 30
0.0
 10
-82.06778350988891
 20
434.868095068687
 30
0.0
 10
-81.39174653784892
 20
433.235991967377
 30
0.0
  0
SPLINE
  5
113
102
{ACAD_REACTORS
330
101B9
330
101BA
330
101BC
102
}
330
1F
100
AcDbEntity
  8
LAYER_1
 62
     5
100
AcDbSpline
210
0.0
220
0.0
230
1.0
 70
     8
 71
     3
 72
     8
 73
     4
 74
     0
 42
0.000000001
 43
0.0000001
 40
0.0
 40
0.0
 40
0.0
 40
0.0
 40
1.0
 40
1.0
 40
1.0
 40
1.0
 10
-81.39174653784892
 20
433.235991967377
 30
0.0
 10
-80.71570578627882
 20
431.603888866067
 30
0.0
 10
-81.08938791737882
 20
429.7252621409771
 30
0.0
 10
-82.33854525955891
 20
428.476104798797
 30
0.0
  0
SPLINE
  5
114
102
{ACAD_REACTORS
330
101B9
330
101BA
330
101BB
330
101BC
102
}
330
1F
100
AcDbEntity
  8
LAYER_1
 62
     5
100
AcDbSpline
210
0.0
220
0.0
230
1.0
 70
     8
 71
     3
 72
     8
 73
     4
 74
     0
 42
0.000000001
 43
0.0000001
 40
0.0
 40
0.0
 40
0.0
 40
0.0
 40
1.0
 40
1.0
 40
1.0
 40
1.0
 10
-82.33854525955891
 20
428.476104798797
 30
0.0
 10
-83.58770260173891
 20
427.2269474566172
 30
0.0
 10
-85.46633310635892
 20
426.853265325517
 30
0.0
 10
-87.09843242813892
 20
427.5293022975572
 30
0.0
  0
SPLINE
  5
115
102
{ACAD_REACTORS
330
101B9
330
101BA
330
101BB
330
101BC
102
}
330
1F
100
AcDbEntity
  8
LAYER_1
 62
     5
100
AcDbSpline
210
0.0
220
0.0
230
1.0
 70
     8
 71
     3
 72
     8
 73
     4
 74
     0
 42
0.000000001
 43
0.0000001
 40
0.0
 40
0.0
 40
0.0
 40
0.0
 40
1.0
 40
1.0
 40
1.0
 40
1.0
 10
-87.09843242813892
 20
427.5293022975572
 30
0.0
 10
-88.73053552944882
 20
428.205343049127
 30
0.0
 10
-89.79469243718881
 20
429.7979689595872
 30
0.0
 10
-89.79469243718881
 20
431.5645401792372
 30
0.0
  0
SPLINE
  5
116
102
{ACAD_REACTORS
330
101B9
330
101BA
330
101BB
330
101BC
102
}
330
1F
100
AcDbEntity
  8
LAYER_1
 62
     5
100
AcDbSpline
210
0.0
220
0.0
230
1.0
 70
     8
 71
     3
 72
     8
 73
     4
 74
     0
 42
0.000000001
 43
0.0000001
 40
0.0
 40
0.0
 40
0.0
 40
0.0
 40
1.0
 40
1.0
 40
1.0
 40
1.0
 10
-89.79469243718881
 20
431.5645401792372
 30
0.0
 10
-89.79469243718881
 20
432.7229321084671
 30
0.0
 10
-89.33452332109881
 20
433.833875818077
 30
0.0
 10
-88.51541979996891
 20
434.6529793392071
 30
0.0
  0
SPLINE
  5
117
102
{ACAD_REACTORS
330
101B9
330
101BA
330
101BC
102
}
330
1F
100
AcDbEntity
  8
LAYER_1
 62
     5
100
AcDbSpline
210
0.0
220
0.0
230
1.0
 70
     8
 71
     3
 72
     8
 73
     4
 74
     0
 42
0.000000001
 43
0.0000001
 40
0.0
 40
0.0
 40
0.0
 40
0.0
 40
1.0
 40
1.0
 40
1.0
 40
1.0
 10
-88.51541979996891
 20
434.6529793392071
 30
0.0
 10
-87.69631627883882
 20
435.4720828603371
 30
0.0
 10
-86.58537256922882
 20
435.9322519764271
 30
0.0
 10
-85.42698441952882
 20
435.9322519764271
 30
0.0
  0
LWPOLYLINE
  5
118
330
1F
100
AcDbEntity
  8
LAYER_1
 62
     3
100
AcDbPolyline
 90
        2
 70
     0
 43
0.0
 10
423.89112249421
 20
573.81073645919
 10
365.68276616118
 20
573.80397110049
  0
LWPOLYLINE
  5
119
102
{ACAD_REACTORS
330
101BC
102
}
330
1F
100
AcDbEntity
  8
LAYER_1
 62
     5
100
AcDbPolyline
 90
        2
 70
     1
 43
0.0
 10
-85.42698441952882
 20
435.9322519764271
 10
-85.42698441952882
 20
435.9322519764271
  0
LWPOLYLINE
  5
11A
330
1F
100
AcDbEntity
  8
LAYER_1
 62
     5
100
AcDbPolyline
 90
        4
 70
     1
 43
0.0
 10
285.80031331062
 20
451.30392726152
 10
281.06489481926
 20
451.30392726152
 10
281.06489481926
 20
411.56849624474
 10
285.80031331062
 20
411.56849624474
  0
LWPOLYLINE
  5
11B
330
1F
100
AcDbEntity
  8
LAYER_1
 62
     3
100
AcDbPolyline
 90
        2
 70
     0
 43
0.0
 10
303.13659033373
 20
289.06500169488
 10
285.3465400437877
 20
289.0538671995
  0
LWPOLYLINE
  5
11C
330
1F
100
AcDbEntity
  8
LAYER_1
 62
     5
100
AcDbPolyline
 90
        2
 70
     0
 43
0.0
 10
365.5503465481
 20
289.0538671995
 10
365.5479054683796
 20
309.3393990058685
  0
LWPOLYLINE
  5
11D
330
1F
100
AcDbEntity
  8
LAYER_1
 62
     3
100
AcDbPolyline
 90
        2
 70
     0
 43
0.0
 10
365.68264521622
 20
573.80397110049
 10
348.14349814083
 20
573.80741425232
  0
SPLINE
  5
11F
330
1F
100
AcDbEntity
  8
0
 62
     5
100
AcDbSpline
210
0.0
220
0.0
230
1.0
 70
     8
 71
     3
 72
     8
 73
     4
 74
     0
 42
0.000000001
 43
0.0000001
 40
0.0
 40
0.0
 40
0.0
 40
0.0
 40
1.0
 40
1.0
 40
1.0
 40
1.0
 10
508.2729687221691
 20
435.618849239774
 30
0.0
 10
506.6075112686091
 20
435.618849239774
 30
0.0
 10
505.1060438422192
 20
434.6156032375142
 30
0.0
 10
504.4687016983191
 20
433.0769187792141
 30
0.0
  0
SPLINE
  5
120
330
1F
100
AcDbEntity
  8
0
 62
     5
100
AcDbSpline
210
0.0
220
0.0
230
1.0
 70
     8
 71
     3
 72
     8
 73
     4
 74
     0
 42
0.000000001
 43
0.0000001
 40
0.0
 40
0.0
 40
0.0
 40
0.0
 40
1.0
 40
1.0
 40
1.0
 40
1.0
 10
504.4687016983191
 20
433.0769187792141
 30
0.0
 10
503.8313557748891
 20
431.5382381004441
 30
0.0
 10
504.1836495457192
 20
429.767135224324
 30
0.0
 10
505.3613057393591
 20
428.5894790306839
 30
0.0
  0
SPLINE
  5
121
330
1F
100
AcDbEntity
  8
0
 62
     5
100
AcDbSpline
210
0.0
220
0.0
230
1.0
 70
     8
 71
     3
 72
     8
 73
     4
 74
     0
 42
0.000000001
 43
0.0000001
 40
0.0
 40
0.0
 40
0.0
 40
0.0
 40
1.0
 40
1.0
 40
1.0
 40
1.0
 10
505.3613057393591
 20
428.5894790306839
 30
0.0
 10
506.5389657125291
 20
427.4118228370442
 30
0.0
 10
508.3100648091191
 20
427.0595290662142
 30
0.0
 10
509.8487492674192
 20
427.696871210114
 30
0.0
  0
SPLINE
  5
122
330
1F
100
AcDbEntity
  8
0
 62
     5
100
AcDbSpline
210
0.0
220
0.0
230
1.0
 70
     8
 71
     3
 72
     8
 73
     4
 74
     0
 42
0.000000001
 43
0.0000001
 40
0.0
 40
0.0
 40
0.0
 40
0.0
 40
1.0
 40
1.0
 40
1.0
 40
1.0
 10
509.8487492674192
 20
427.696871210114
 30
0.0
 10
511.3874299461891
 20
428.334217133544
 30
0.0
 10
512.3906797279792
 20
429.8356807804041
 30
0.0
 10
512.3906797279792
 20
431.501142013494
 30
0.0
  0
SPLINE
  5
123
330
1F
100
AcDbEntity
  8
0
 62
     5
100
AcDbSpline
210
0.0
220
0.0
230
1.0
 70
     8
 71
     3
 72
     8
 73
     4
 74
     0
 42
0.000000001
 43
0.0000001
 40
0.0
 40
0.0
 40
0.0
 40
0.0
 40
1.0
 40
1.0
 40
1.0
 40
1.0
 10
512.3906797279792
 20
431.501142013494
 30
0.0
 10
512.3906797279792
 20
432.593225868404
 30
0.0
 10
511.9568501564592
 20
433.640578985764
 30
0.0
 10
511.1846279254491
 20
434.412801216774
 30
0.0
  0
SPLINE
  5
124
330
1F
100
AcDbEntity
  8
0
 62
     5
100
AcDbSpline
210
0.0
220
0.0
230
1.0
 70
     8
 71
     3
 72
     8
 73
     4
 74
     0
 42
0.000000001
 43
0.0000001
 40
0.0
 40
0.0
 40
0.0
 40
0.0
 40
1.0
 40
1.0
 40
1.0
 40
1.0
 10
511.1846279254491
 20
434.412801216774
 30
0.0
 10
510.4124094739691
 20
435.185019668254
 30
0.0
 10
509.3650525770792
 20
435.618849239774
 30
0.0
 10
508.2729687221691
 20
435.618849239774
 30
0.0
  0
LWPOLYLINE
  5
125
330
1F
100
AcDbEntity
  8
LAYER_1
 62
     5
100
AcDbPolyline
 90
        4
 70
     0
 43
0.0
 10
365.5479054683796
 20
309.3393990058685
 10
370.2829082114396
 20
309.3393990058685
 10
370.2829082114396
 20
409.0744341266985
 10
365.5479054683796
 20
409.0744341266985
  0
SPLINE
  5
126
102
{ACAD_REACTORS
330
10186
102
}
330
1F
100
AcDbEntity
  8
0
 62
     5
100
AcDbSpline
210
0.0
220
0.0
230
1.0
 70
     8
 71
     3
 72
     8
 73
     4
 74
     0
 42
0.000000001
 43
0.0000001
 40
0.0
 40
0.0
 40
0.0
 40
0.0
 40
1.0
 40
1.0
 40
1.0
 40
1.0
 10
484.6829490775091
 20
457.418660484164
 30
0.0
 10
483.7253862543591
 20
457.418660484164
 30
0.0
 10
482.8621075865892
 20
456.8418361746241
 30
0.0
 10
482.4956632554391
 20
455.9571615875241
 30
0.0
  0
SPLINE
  5
127
102
{ACAD_REACTORS
330
10186
102
}
330
1F
100
AcDbEntity
  8
0
 62
     5
100
AcDbSpline
210
0.0
220
0.0
230
1.0
 70
     8
 71
     3
 72
     8
 73
     4
 74
     0
 42
0.000000001
 43
0.0000001
 40
0.0
 40
0.0
 40
0.0
 40
0.0
 40
1.0
 40
1.0
 40
1.0
 40
1.0
 10
482.4956632554391
 20
455.9571615875241
 30
0.0
 10
482.1292189242891
 20
455.072487000424
 30
0.0
 10
482.3317714960492
 20
454.0541833506439
 30
0.0
 10
483.0088742955492
 20
453.3770843306739
 30
0.0
  0
SPLINE
  5
128
102
{ACAD_REACTORS
330
10186
102
}
330
1F
100
AcDbEntity
  8
0
 62
     5
100
AcDbSpline
210
0.0
220
0.0
230
1.0
 70
     8
 71
     3
 72
     8
 73
     4
 74
     0
 42
0.000000001
 43
0.0000001
 40
0.0
 40
0.0
 40
0.0
 40
0.0
 40
1.0
 40
1.0
 40
1.0
 40
1.0
 10
483.0088742955492
 20
453.3770843306739
 30
0.0
 10
483.6859733155192
 20
452.6999815311739
 30
0.0
 10
484.7042769652991
 20
452.497428959414
 30
0.0
 10
485.5889515523991
 20
452.8638732905641
 30
0.0
  0
SPLINE
  5
129
102
{ACAD_REACTORS
330
10186
102
}
330
1F
100
AcDbEntity
  8
0
 62
     5
100
AcDbSpline
210
0.0
220
0.0
230
1.0
 70
     8
 71
     3
 72
     8
 73
     4
 74
     0
 42
0.000000001
 43
0.0000001
 40
0.0
 40
0.0
 40
0.0
 40
0.0
 40
1.0
 40
1.0
 40
1.0
 40
1.0
 10
485.5889515523991
 20
452.8638732905641
 30
0.0
 10
486.4736261394991
 20
453.2303176217142
 30
0.0
 10
487.0504504490391
 20
454.0935925099541
 30
0.0
 10
487.0504504490391
 20
455.051159112634
 30
0.0
  0
SPLINE
  5
12A
102
{ACAD_REACTORS
330
10186
102
}
330
1F
100
AcDbEntity
  8
0
 62
     5
100
AcDbSpline
210
0.0
220
0.0
230
1.0
 70
     8
 71
     3
 72
     8
 73
     4
 74
     0
 42
0.000000001
 43
0.0000001
 40
0.0
 40
0.0
 40
0.0
 40
0.0
 40
1.0
 40
1.0
 40
1.0
 40
1.0
 10
487.0504504490391
 20
455.051159112634
 30
0.0
 10
487.0504504490391
 20
455.6790599905939
 30
0.0
 10
486.8010165871592
 20
456.2812411669041
 30
0.0
 10
486.3570238594692
 20
456.7252338945942
 30
0.0
  0
SPLINE
  5
12B
102
{ACAD_REACTORS
330
10186
102
}
330
1F
100
AcDbEntity
  8
0
 62
     5
100
AcDbSpline
210
0.0
220
0.0
230
1.0
 70
     8
 71
     3
 72
     8
 73
     4
 74
     0
 42
0.000000001
 43
0.0000001
 40
0.0
 40
0.0
 40
0.0
 40
0.0
 40
1.0
 40
1.0
 40
1.0
 40
1.0
 10
486.3570238594692
 20
456.7252338945942
 30
0.0
 10
485.9130311317791
 20
457.1692266222842
 30
0.0
 10
485.3108499554692
 20
457.418660484164
 30
0.0
 10
484.6829490775091
 20
457.418660484164
 30
0.0
  0
LWPOLYLINE
  5
12C
330
1F
100
AcDbEntity
  8
0
 62
     5
100
AcDbPolyline
 90
        2
 70
     1
 43
0.0
 10
508.2729687221691
 20
435.618849239774
 10
508.2729687221691
 20
435.618849239774
  0
SPLINE
  5
12D
102
{ACAD_REACTORS
330
10187
102
}
330
1F
100
AcDbEntity
  8
0
 62
     5
100
AcDbSpline
210
0.0
220
0.0
230
1.0
 70
     8
 71
     3
 72
     8
 73
     4
 74
     0
 42
0.000000001
 43
0.0000001
 40
0.0
 40
0.0
 40
0.0
 40
0.0
 40
1.0
 40
1.0
 40
1.0
 40
1.0
 10
484.6829490775091
 20
410.2786426380139
 30
0.0
 10
483.7253862543591
 20
410.2786426380139
 30
0.0
 10
482.8621075865892
 20
409.701818328474
 30
0.0
 10
482.4956632554391
 20
408.817143741374
 30
0.0
  0
SPLINE
  5
12E
102
{ACAD_REACTORS
330
10187
102
}
330
1F
100
AcDbEntity
  8
0
 62
     5
100
AcDbSpline
210
0.0
220
0.0
230
1.0
 70
     8
 71
     3
 72
     8
 73
     4
 74
     0
 42
0.000000001
 43
0.0000001
 40
0.0
 40
0.0
 40
0.0
 40
0.0
 40
1.0
 40
1.0
 40
1.0
 40
1.0
 10
482.4956632554391
 20
408.817143741374
 30
0.0
 10
482.1292189242891
 20
407.932469154274
 30
0.0
 10
482.3317714960492
 20
406.9141655044941
 30
0.0
 10
483.0088742955492
 20
406.2370664845241
 30
0.0
  0
SPLINE
  5
12F
102
{ACAD_REACTORS
330
10187
102
}
330
1F
100
AcDbEntity
  8
0
 62
     5
100
AcDbSpline
210
0.0
220
0.0
230
1.0
 70
     8
 71
     3
 72
     8
 73
     4
 74
     0
 42
0.000000001
 43
0.0000001
 40
0.0
 40
0.0
 40
0.0
 40
0.0
 40
1.0
 40
1.0
 40
1.0
 40
1.0
 10
483.0088742955492
 20
406.2370664845241
 30
0.0
 10
483.6859733155192
 20
405.5599636850241
 30
0.0
 10
484.7042769652991
 20
405.3574111132642
 30
0.0
 10
485.5889515523991
 20
405.723855444414
 30
0.0
  0
SPLINE
  5
130
102
{ACAD_REACTORS
330
10187
102
}
330
1F
100
AcDbEntity
  8
0
 62
     5
100
AcDbSpline
210
0.0
220
0.0
230
1.0
 70
     8
 71
     3
 72
     8
 73
     4
 74
     0
 42
0.000000001
 43
0.0000001
 40
0.0
 40
0.0
 40
0.0
 40
0.0
 40
1.0
 40
1.0
 40
1.0
 40
1.0
 10
485.5889515523991
 20
405.723855444414
 30
0.0
 10
486.4736261394991
 20
406.0902997755641
 30
0.0
 10
487.0504504490391
 20
406.9535784433339
 30
0.0
 10
487.0504504490391
 20
407.911141266484
 30
0.0
  0
SPLINE
  5
131
102
{ACAD_REACTORS
330
10187
102
}
330
1F
100
AcDbEntity
  8
0
 62
     5
100
AcDbSpline
210
0.0
220
0.0
230
1.0
 70
     8
 71
     3
 72
     8
 73
     4
 74
     0
 42
0.000000001
 43
0.0000001
 40
0.0
 40
0.0
 40
0.0
 40
0.0
 40
1.0
 40
1.0
 40
1.0
 40
1.0
 10
487.0504504490391
 20
407.911141266484
 30
0.0
 10
487.0504504490391
 20
408.5390421444441
 30
0.0
 10
486.8010165871592
 20
409.141227100284
 30
0.0
 10
486.3570238594692
 20
409.5852160484441
 30
0.0
  0
SPLINE
  5
132
102
{ACAD_REACTORS
330
10187
102
}
330
1F
100
AcDbEntity
  8
0
 62
     5
100
AcDbSpline
210
0.0
220
0.0
230
1.0
 70
     8
 71
     3
 72
     8
 73
     4
 74
     0
 42
0.000000001
 43
0.0000001
 40
0.0
 40
0.0
 40
0.0
 40
0.0
 40
1.0
 40
1.0
 40
1.0
 40
1.0
 10
486.3570238594692
 20
409.5852160484441
 30
0.0
 10
485.9130311317791
 20
410.0292087761341
 30
0.0
 10
485.3108499554692
 20
410.2786426380139
 30
0.0
 10
484.6829490775091
 20
410.2786426380139
 30
0.0
  0
LWPOLYLINE
  5
133
102
{ACAD_REACTORS
330
10186
102
}
330
1F
100
AcDbEntity
  8
0
 62
     5
100
AcDbPolyline
 90
        2
 70
     1
 43
0.0
 10
484.6829490775091
 20
457.418660484164
 10
484.6829490775091
 20
457.418660484164
  0
SPLINE
  5
134
102
{ACAD_REACTORS
330
10185
102
}
330
1F
100
AcDbEntity
  8
0
 62
     5
100
AcDbSpline
210
0.0
220
0.0
230
1.0
 70
     8
 71
     3
 72
     8
 73
     4
 74
     0
 42
0.000000001
 43
0.0000001
 40
0.0
 40
0.0
 40
0.0
 40
0.0
 40
1.0
 40
1.0
 40
1.0
 40
1.0
 10
531.8229555850692
 20
410.2786426380139
 30
0.0
 10
530.8653927619191
 20
410.2786426380139
 30
0.0
 10
530.0021140941492
 20
409.701818328474
 30
0.0
 10
529.6356697629991
 20
408.817143741374
 30
0.0
  0
SPLINE
  5
135
102
{ACAD_REACTORS
330
10185
102
}
330
1F
100
AcDbEntity
  8
0
 62
     5
100
AcDbSpline
210
0.0
220
0.0
230
1.0
 70
     8
 71
     3
 72
     8
 73
     4
 74
     0
 42
0.000000001
 43
0.0000001
 40
0.0
 40
0.0
 40
0.0
 40
0.0
 40
1.0
 40
1.0
 40
1.0
 40
1.0
 10
529.6356697629991
 20
408.817143741374
 30
0.0
 10
529.2692254318491
 20
407.932469154274
 30
0.0
 10
529.4717780036092
 20
406.9141655044941
 30
0.0
 10
530.1488808031091
 20
406.2370664845241
 30
0.0
  0
SPLINE
  5
136
102
{ACAD_REACTORS
330
10185
102
}
330
1F
100
AcDbEntity
  8
0
 62
     5
100
AcDbSpline
210
0.0
220
0.0
230
1.0
 70
     8
 71
     3
 72
     8
 73
     4
 74
     0
 42
0.000000001
 43
0.0000001
 40
0.0
 40
0.0
 40
0.0
 40
0.0
 40
1.0
 40
1.0
 40
1.0
 40
1.0
 10
530.1488808031091
 20
406.2370664845241
 30
0.0
 10
530.8259798230791
 20
405.5599636850241
 30
0.0
 10
531.8442872523891
 20
405.3574111132642
 30
0.0
 10
532.7289618394891
 20
405.723855444414
 30
0.0
  0
SPLINE
  5
137
102
{ACAD_REACTORS
330
10185
102
}
330
1F
100
AcDbEntity
  8
0
 62
     5
100
AcDbSpline
210
0.0
220
0.0
230
1.0
 70
     8
 71
     3
 72
     8
 73
     4
 74
     0
 42
0.000000001
 43
0.0000001
 40
0.0
 40
0.0
 40
0.0
 40
0.0
 40
1.0
 40
1.0
 40
1.0
 40
1.0
 10
532.7289618394891
 20
405.723855444414
 30
0.0
 10
533.6136364265892
 20
406.0902997755641
 30
0.0
 10
534.1904569565992
 20
406.9535784433339
 30
0.0
 10
534.1904569565992
 20
407.911141266484
 30
0.0
  0
SPLINE
  5
138
102
{ACAD_REACTORS
330
10185
102
}
330
1F
100
AcDbEntity
  8
0
 62
     5
100
AcDbSpline
210
0.0
220
0.0
230
1.0
 70
     8
 71
     3
 72
     8
 73
     4
 74
     0
 42
0.000000001
 43
0.0000001
 40
0.0
 40
0.0
 40
0.0
 40
0.0
 40
1.0
 40
1.0
 40
1.0
 40
1.0
 10
534.1904569565992
 20
407.911141266484
 30
0.0
 10
534.1904569565992
 20
408.5390421444441
 30
0.0
 10
533.9410268742491
 20
409.141227100284
 30
0.0
 10
533.4970341465591
 20
409.5852160484441
 30
0.0
  0
SPLINE
  5
139
102
{ACAD_REACTORS
330
10185
102
}
330
1F
100
AcDbEntity
  8
0
 62
     5
100
AcDbSpline
210
0.0
220
0.0
230
1.0
 70
     8
 71
     3
 72
     8
 73
     4
 74
     0
 42
0.000000001
 43
0.0000001
 40
0.0
 40
0.0
 40
0.0
 40
0.0
 40
1.0
 40
1.0
 40
1.0
 40
1.0
 10
533.4970341465591
 20
409.5852160484441
 30
0.0
 10
533.0530414188692
 20
410.0292087761341
 30
0.0
 10
532.4508564630291
 20
410.2786426380139
 30
0.0
 10
531.8229555850692
 20
410.2786426380139
 30
0.0
  0
LWPOLYLINE
  5
13A
102
{ACAD_REACTORS
330
10187
102
}
330
1F
100
AcDbEntity
  8
0
 62
     5
100
AcDbPolyline
 90
        2
 70
     1
 43
0.0
 10
484.6829490775091
 20
410.2786426380139
 10
484.6829490775091
 20
410.2786426380139
  0
SPLINE
  5
13B
102
{ACAD_REACTORS
330
10184
102
}
330
1F
100
AcDbEntity
  8
0
 62
     5
100
AcDbSpline
210
0.0
220
0.0
230
1.0
 70
     8
 71
     3
 72
     8
 73
     4
 74
     0
 42
0.000000001
 43
0.0000001
 40
0.0
 40
0.0
 40
0.0
 40
0.0
 40
1.0
 40
1.0
 40
1.0
 40
1.0
 10
531.8229555850692
 20
457.418660484164
 30
0.0
 10
530.8653927619191
 20
457.418660484164
 30
0.0
 10
530.0021140941492
 20
456.8418361746241
 30
0.0
 10
529.6356697629991
 20
455.9571615875241
 30
0.0
  0
SPLINE
  5
13C
102
{ACAD_REACTORS
330
10184
102
}
330
1F
100
AcDbEntity
  8
0
 62
     5
100
AcDbSpline
210
0.0
220
0.0
230
1.0
 70
     8
 71
     3
 72
     8
 73
     4
 74
     0
 42
0.000000001
 43
0.0000001
 40
0.0
 40
0.0
 40
0.0
 40
0.0
 40
1.0
 40
1.0
 40
1.0
 40
1.0
 10
529.6356697629991
 20
455.9571615875241
 30
0.0
 10
529.2692254318491
 20
455.072487000424
 30
0.0
 10
529.4717780036092
 20
454.0541833506439
 30
0.0
 10
530.1488808031091
 20
453.3770843306739
 30
0.0
  0
SPLINE
  5
13D
102
{ACAD_REACTORS
330
10184
102
}
330
1F
100
AcDbEntity
  8
0
 62
     5
100
AcDbSpline
210
0.0
220
0.0
230
1.0
 70
     8
 71
     3
 72
     8
 73
     4
 74
     0
 42
0.000000001
 43
0.0000001
 40
0.0
 40
0.0
 40
0.0
 40
0.0
 40
1.0
 40
1.0
 40
1.0
 40
1.0
 10
530.1488808031091
 20
453.3770843306739
 30
0.0
 10
530.8259798230791
 20
452.6999815311739
 30
0.0
 10
531.8442872523891
 20
452.497428959414
 30
0.0
 10
532.7289618394891
 20
452.8638732905641
 30
0.0
  0
SPLINE
  5
13E
102
{ACAD_REACTORS
330
10184
102
}
330
1F
100
AcDbEntity
  8
0
 62
     5
100
AcDbSpline
210
0.0
220
0.0
230
1.0
 70
     8
 71
     3
 72
     8
 73
     4
 74
     0
 42
0.000000001
 43
0.0000001
 40
0.0
 40
0.0
 40
0.0
 40
0.0
 40
1.0
 40
1.0
 40
1.0
 40
1.0
 10
532.7289618394891
 20
452.8638732905641
 30
0.0
 10
533.6136364265892
 20
453.2303176217142
 30
0.0
 10
534.1904569565992
 20
454.0935925099541
 30
0.0
 10
534.1904569565992
 20
455.051159112634
 30
0.0
  0
SPLINE
  5
13F
102
{ACAD_REACTORS
330
10184
102
}
330
1F
100
AcDbEntity
  8
0
 62
     5
100
AcDbSpline
210
0.0
220
0.0
230
1.0
 70
     8
 71
     3
 72
     8
 73
     4
 74
     0
 42
0.000000001
 43
0.0000001
 40
0.0
 40
0.0
 40
0.0
 40
0.0
 40
1.0
 40
1.0
 40
1.0
 40
1.0
 10
534.1904569565992
 20
455.051159112634
 30
0.0
 10
534.1904569565992
 20
455.6790599905939
 30
0.0
 10
533.9410268742491
 20
456.2812411669041
 30
0.0
 10
533.4970341465591
 20
456.7252338945942
 30
0.0
  0
SPLINE
  5
140
102
{ACAD_REACTORS
330
10184
102
}
330
1F
100
AcDbEntity
  8
0
 62
     5
100
AcDbSpline
210
0.0
220
0.0
230
1.0
 70
     8
 71
     3
 72
     8
 73
     4
 74
     0
 42
0.000000001
 43
0.0000001
 40
0.0
 40
0.0
 40
0.0
 40
0.0
 40
1.0
 40
1.0
 40
1.0
 40
1.0
 10
533.4970341465591
 20
456.7252338945942
 30
0.0
 10
533.0530414188692
 20
457.1692266222842
 30
0.0
 10
532.4508564630291
 20
457.418660484164
 30
0.0
 10
531.8229555850692
 20
457.418660484164
 30
0.0
  0
LWPOLYLINE
  5
141
102
{ACAD_REACTORS
330
10185
102
}
330
1F
100
AcDbEntity
  8
0
 62
     5
100
AcDbPolyline
 90
        2
 70
     1
 43
0.0
 10
531.8229555850692
 20
410.2786426380139
 10
531.8229555850692
 20
410.2786426380139
  0
SPLINE
  5
142
330
1F
100
AcDbEntity
  8
LAYER_1
 62
     5
100
AcDbSpline
210
0.0
220
0.0
230
1.0
 70
     8
 71
     3
 72
     8
 73
     4
 74
     0
 42
0.000000001
 43
0.0000001
 40
0.0
 40
0.0
 40
0.0
 40
0.0
 40
1.0
 40
1.0
 40
1.0
 40
1.0
 10
337.20776068447
 20
435.8789207641099
 30
0.0
 10
335.54230323091
 20
435.8789207641099
 30
0.0
 10
334.04083580452
 20
434.8756709823199
 30
0.0
 10
333.40349366062
 20
433.3369903035499
 30
0.0
  0
SPLINE
  5
143
330
1F
100
AcDbEntity
  8
LAYER_1
 62
     5
100
AcDbSpline
210
0.0
220
0.0
230
1.0
 70
     8
 71
     3
 72
     8
 73
     4
 74
     0
 42
0.000000001
 43
0.0000001
 40
0.0
 40
0.0
 40
0.0
 40
0.0
 40
1.0
 40
1.0
 40
1.0
 40
1.0
 10
333.40349366062
 20
433.3369903035499
 30
0.0
 10
332.76614773719
 20
431.79830584525
 30
0.0
 10
333.11844150802
 20
430.0272067486601
 30
0.0
 10
334.29610148119
 20
428.84954677549
 30
0.0
  0
SPLINE
  5
144
330
1F
100
AcDbEntity
  8
LAYER_1
 62
     5
100
AcDbSpline
210
0.0
220
0.0
230
1.0
 70
     8
 71
     3
 72
     8
 73
     4
 74
     0
 42
0.000000001
 43
0.0000001
 40
0.0
 40
0.0
 40
0.0
 40
0.0
 40
1.0
 40
1.0
 40
1.0
 40
1.0
 10
334.29610148119
 20
428.84954677549
 30
0.0
 10
335.47375767483
 20
427.6718905818501
 30
0.0
 10
337.24485677142
 20
427.3195968110199
 30
0.0
 10
338.78354122972
 20
427.9569389549199
 30
0.0
  0
SPLINE
  5
145
330
1F
100
AcDbEntity
  8
LAYER_1
 62
     5
100
AcDbSpline
210
0.0
220
0.0
230
1.0
 70
     8
 71
     3
 72
     8
 73
     4
 74
     0
 42
0.000000001
 43
0.0000001
 40
0.0
 40
0.0
 40
0.0
 40
0.0
 40
1.0
 40
1.0
 40
1.0
 40
1.0
 10
338.78354122972
 20
427.9569389549199
 30
0.0
 10
340.32222190849
 20
428.59428487835
 30
0.0
 10
341.32547169028
 20
430.09575230474
 30
0.0
 10
341.32547169028
 20
431.7612097583
 30
0.0
  0
SPLINE
  5
146
330
1F
100
AcDbEntity
  8
LAYER_1
 62
     5
100
AcDbSpline
210
0.0
220
0.0
230
1.0
 70
     8
 71
     3
 72
     8
 73
     4
 74
     0
 42
0.000000001
 43
0.0000001
 40
0.0
 40
0.0
 40
0.0
 40
0.0
 40
1.0
 40
1.0
 40
1.0
 40
1.0
 10
341.32547169028
 20
431.7612097583
 30
0.0
 10
341.32547169028
 20
432.85329361321
 30
0.0
 10
340.89164211876
 20
433.9006505100999
 30
0.0
 10
340.11941988775
 20
434.67286896158
 30
0.0
  0
SPLINE
  5
147
330
1F
100
AcDbEntity
  8
LAYER_1
 62
     5
100
AcDbSpline
210
0.0
220
0.0
230
1.0
 70
     8
 71
     3
 72
     8
 73
     4
 74
     0
 42
0.000000001
 43
0.0000001
 40
0.0
 40
0.0
 40
0.0
 40
0.0
 40
1.0
 40
1.0
 40
1.0
 40
1.0
 10
340.11941988775
 20
434.67286896158
 30
0.0
 10
339.34720143627
 20
435.44509119259
 30
0.0
 10
338.29984453938
 20
435.8789207641099
 30
0.0
 10
337.20776068447
 20
435.8789207641099
 30
0.0
  0
LWPOLYLINE
  5
148
102
{ACAD_REACTORS
330
10184
102
}
330
1F
100
AcDbEntity
  8
0
 62
     5
100
AcDbPolyline
 90
        2
 70
     1
 43
0.0
 10
531.8229555850692
 20
457.418660484164
 10
531.8229555850692
 20
457.418660484164
  0
SPLINE
  5
149
330
1F
100
AcDbEntity
  8
LAYER_1
 62
     5
100
AcDbSpline
210
0.0
220
0.0
230
1.0
 70
     8
 71
     3
 72
     8
 73
     4
 74
     0
 42
0.000000001
 43
0.0000001
 40
0.0
 40
0.0
 40
0.0
 40
0.0
 40
1.0
 40
1.0
 40
1.0
 40
1.0
 10
313.61774859887
 20
457.67872066991
 30
0.0
 10
312.66018199619
 20
457.67872066991
 30
0.0
 10
311.79690710795
 20
457.10189636037
 30
0.0
 10
311.4304627768
 20
456.2172217732699
 30
0.0
  0
SPLINE
  5
14A
330
1F
100
AcDbEntity
  8
LAYER_1
 62
     5
100
AcDbSpline
210
0.0
220
0.0
230
1.0
 70
     8
 71
     3
 72
     8
 73
     4
 74
     0
 42
0.000000001
 43
0.0000001
 40
0.0
 40
0.0
 40
0.0
 40
0.0
 40
1.0
 40
1.0
 40
1.0
 40
1.0
 10
311.4304627768
 20
456.2172217732699
 30
0.0
 10
311.06401844565
 20
455.33254718617
 30
0.0
 10
311.26657101741
 20
454.31424353639
 30
0.0
 10
311.94367003738
 20
453.6371407368899
 30
0.0
  0
SPLINE
  5
14B
330
1F
100
AcDbEntity
  8
LAYER_1
 62
     5
100
AcDbSpline
210
0.0
220
0.0
230
1.0
 70
     8
 71
     3
 72
     8
 73
     4
 74
     0
 42
0.000000001
 43
0.0000001
 40
0.0
 40
0.0
 40
0.0
 40
0.0
 40
1.0
 40
1.0
 40
1.0
 40
1.0
 10
311.94367003738
 20
453.6371407368899
 30
0.0
 10
312.62077283688
 20
452.96004171692
 30
0.0
 10
313.63907648666
 20
452.7574891451601
 30
0.0
 10
314.52375107376
 20
453.12392969678
 30
0.0
  0
SPLINE
  5
14C
330
1F
100
AcDbEntity
  8
LAYER_1
 62
     5
100
AcDbSpline
210
0.0
220
0.0
230
1.0
 70
     8
 71
     3
 72
     8
 73
     4
 74
     0
 42
0.000000001
 43
0.0000001
 40
0.0
 40
0.0
 40
0.0
 40
0.0
 40
1.0
 40
1.0
 40
1.0
 40
1.0
 10
314.52375107376
 20
453.12392969678
 30
0.0
 10
315.40842566086
 20
453.49037402793
 30
0.0
 10
315.9852499704
 20
454.3536526956999
 30
0.0
 10
315.9852499704
 20
455.3112192983799
 30
0.0
  0
SPLINE
  5
14D
330
1F
100
AcDbEntity
  8
LAYER_1
 62
     5
100
AcDbSpline
210
0.0
220
0.0
230
1.0
 70
     8
 71
     3
 72
     8
 73
     4
 74
     0
 42
0.000000001
 43
0.0000001
 40
0.0
 40
0.0
 40
0.0
 40
0.0
 40
1.0
 40
1.0
 40
1.0
 40
1.0
 10
315.9852499704
 20
455.3112192983799
 30
0.0
 10
315.9852499704
 20
455.9391163968099
 30
0.0
 10
315.73581610852
 20
456.54130135265
 30
0.0
 10
315.29182338083
 20
456.9852940803401
 30
0.0
  0
SPLINE
  5
14E
330
1F
100
AcDbEntity
  8
LAYER_1
 62
     5
100
AcDbSpline
210
0.0
220
0.0
230
1.0
 70
     8
 71
     3
 72
     8
 73
     4
 74
     0
 42
0.000000001
 43
0.0000001
 40
0.0
 40
0.0
 40
0.0
 40
0.0
 40
1.0
 40
1.0
 40
1.0
 40
1.0
 10
315.29182338083
 20
456.9852940803401
 30
0.0
 10
314.84783065314
 20
457.4292868080299
 30
0.0
 10
314.24564947683
 20
457.67872066991
 30
0.0
 10
313.61774859887
 20
457.67872066991
 30
0.0
  0
LWPOLYLINE
  5
14F
330
1F
100
AcDbEntity
  8
LAYER_1
 62
     5
100
AcDbPolyline
 90
        2
 70
     1
 43
0.0
 10
337.20776068447
 20
435.8789207641099
 10
337.20776068447
 20
435.8789207641099
  0
SPLINE
  5
150
330
1F
100
AcDbEntity
  8
LAYER_1
 62
     5
100
AcDbSpline
210
0.0
220
0.0
230
1.0
 70
     8
 71
     3
 72
     8
 73
     4
 74
     0
 42
0.000000001
 43
0.0000001
 40
0.0
 40
0.0
 40
0.0
 40
0.0
 40
1.0
 40
1.0
 40
1.0
 40
1.0
 10
313.61774859887
 20
410.53870282376
 30
0.0
 10
312.66018199619
 20
410.53870282376
 30
0.0
 10
311.79690710795
 20
409.9618785142201
 30
0.0
 10
311.4304627768
 20
409.07720392712
 30
0.0
  0
SPLINE
  5
151
330
1F
100
AcDbEntity
  8
LAYER_1
 62
     5
100
AcDbSpline
210
0.0
220
0.0
230
1.0
 70
     8
 71
     3
 72
     8
 73
     4
 74
     0
 42
0.000000001
 43
0.0000001
 40
0.0
 40
0.0
 40
0.0
 40
0.0
 40
1.0
 40
1.0
 40
1.0
 40
1.0
 10
311.4304627768
 20
409.07720392712
 30
0.0
 10
311.06401844565
 20
408.19252934002
 30
0.0
 10
311.26657101741
 20
407.17422569024
 30
0.0
 10
311.94367003738
 20
406.49712289074
 30
0.0
  0
SPLINE
  5
152
330
1F
100
AcDbEntity
  8
LAYER_1
 62
     5
100
AcDbSpline
210
0.0
220
0.0
230
1.0
 70
     8
 71
     3
 72
     8
 73
     4
 74
     0
 42
0.000000001
 43
0.0000001
 40
0.0
 40
0.0
 40
0.0
 40
0.0
 40
1.0
 40
1.0
 40
1.0
 40
1.0
 10
311.94367003738
 20
406.49712289074
 30
0.0
 10
312.62077283688
 20
405.82002387077
 30
0.0
 10
313.63907648666
 20
405.6174712990099
 30
0.0
 10
314.52375107376
 20
405.98391563016
 30
0.0
  0
SPLINE
  5
153
330
1F
100
AcDbEntity
  8
LAYER_1
 62
     5
100
AcDbSpline
210
0.0
220
0.0
230
1.0
 70
     8
 71
     3
 72
     8
 73
     4
 74
     0
 42
0.000000001
 43
0.0000001
 40
0.0
 40
0.0
 40
0.0
 40
0.0
 40
1.0
 40
1.0
 40
1.0
 40
1.0
 10
314.52375107376
 20
405.98391563016
 30
0.0
 10
315.40842566086
 20
406.35035996131
 30
0.0
 10
315.9852499704
 20
407.21363484955
 30
0.0
 10
315.9852499704
 20
408.17120145223
 30
0.0
  0
SPLINE
  5
154
330
1F
100
AcDbEntity
  8
LAYER_1
 62
     5
100
AcDbSpline
210
0.0
220
0.0
230
1.0
 70
     8
 71
     3
 72
     8
 73
     4
 74
     0
 42
0.000000001
 43
0.0000001
 40
0.0
 40
0.0
 40
0.0
 40
0.0
 40
1.0
 40
1.0
 40
1.0
 40
1.0
 10
315.9852499704
 20
408.17120145223
 30
0.0
 10
315.9852499704
 20
408.79910233019
 30
0.0
 10
315.73581610852
 20
409.4012835065
 30
0.0
 10
315.29182338083
 20
409.84527623419
 30
0.0
  0
SPLINE
  5
155
330
1F
100
AcDbEntity
  8
LAYER_1
 62
     5
100
AcDbSpline
210
0.0
220
0.0
230
1.0
 70
     8
 71
     3
 72
     8
 73
     4
 74
     0
 42
0.000000001
 43
0.0000001
 40
0.0
 40
0.0
 40
0.0
 40
0.0
 40
1.0
 40
1.0
 40
1.0
 40
1.0
 10
315.29182338083
 20
409.84527623419
 30
0.0
 10
314.84783065314
 20
410.2892689618799
 30
0.0
 10
314.24564947683
 20
410.53870282376
 30
0.0
 10
313.61774859887
 20
410.53870282376
 30
0.0
  0
LWPOLYLINE
  5
156
330
1F
100
AcDbEntity
  8
LAYER_1
 62
     5
100
AcDbPolyline
 90
        2
 70
     1
 43
0.0
 10
313.61774859887
 20
457.67872066991
 10
313.61774859887
 20
457.67872066991
  0
SPLINE
  5
157
330
1F
100
AcDbEntity
  8
LAYER_1
 62
     5
100
AcDbSpline
210
0.0
220
0.0
230
1.0
 70
     8
 71
     3
 72
     8
 73
     4
 74
     0
 42
0.000000001
 43
0.0000001
 40
0.0
 40
0.0
 40
0.0
 40
0.0
 40
1.0
 40
1.0
 40
1.0
 40
1.0
 10
360.75775888596
 20
410.53870282376
 30
0.0
 10
359.80019228328
 20
410.53870282376
 30
0.0
 10
358.93691739504
 20
409.9618785142201
 30
0.0
 10
358.57047306389
 20
409.07720392712
 30
0.0
  0
SPLINE
  5
158
330
1F
100
AcDbEntity
  8
LAYER_1
 62
     5
100
AcDbSpline
210
0.0
220
0.0
230
1.0
 70
     8
 71
     3
 72
     8
 73
     4
 74
     0
 42
0.000000001
 43
0.0000001
 40
0.0
 40
0.0
 40
0.0
 40
0.0
 40
1.0
 40
1.0
 40
1.0
 40
1.0
 10
358.57047306389
 20
409.07720392712
 30
0.0
 10
358.20402873274
 20
408.19252934002
 30
0.0
 10
358.4065813045
 20
407.17422569024
 30
0.0
 10
359.08368032447
 20
406.49712289074
 30
0.0
  0
SPLINE
  5
159
330
1F
100
AcDbEntity
  8
LAYER_1
 62
     5
100
AcDbSpline
210
0.0
220
0.0
230
1.0
 70
     8
 71
     3
 72
     8
 73
     4
 74
     0
 42
0.000000001
 43
0.0000001
 40
0.0
 40
0.0
 40
0.0
 40
0.0
 40
1.0
 40
1.0
 40
1.0
 40
1.0
 10
359.08368032447
 20
406.49712289074
 30
0.0
 10
359.76078312397
 20
405.82002387077
 30
0.0
 10
360.77908677375
 20
405.6174712990099
 30
0.0
 10
361.66376136085
 20
405.98391563016
 30
0.0
  0
SPLINE
  5
15A
330
1F
100
AcDbEntity
  8
LAYER_1
 62
     5
100
AcDbSpline
210
0.0
220
0.0
230
1.0
 70
     8
 71
     3
 72
     8
 73
     4
 74
     0
 42
0.000000001
 43
0.0000001
 40
0.0
 40
0.0
 40
0.0
 40
0.0
 40
1.0
 40
1.0
 40
1.0
 40
1.0
 10
361.66376136085
 20
405.98391563016
 30
0.0
 10
362.54843594795
 20
406.35035996131
 30
0.0
 10
363.12526025749
 20
407.21363484955
 30
0.0
 10
363.12526025749
 20
408.17120145223
 30
0.0
  0
SPLINE
  5
15B
330
1F
100
AcDbEntity
  8
LAYER_1
 62
     5
100
AcDbSpline
210
0.0
220
0.0
230
1.0
 70
     8
 71
     3
 72
     8
 73
     4
 74
     0
 42
0.000000001
 43
0.0000001
 40
0.0
 40
0.0
 40
0.0
 40
0.0
 40
1.0
 40
1.0
 40
1.0
 40
1.0
 10
363.12526025749
 20
408.17120145223
 30
0.0
 10
363.12526025749
 20
408.79910233019
 30
0.0
 10
362.87582639561
 20
409.4012835065
 30
0.0
 10
362.43183366792
 20
409.84527623419
 30
0.0
  0
SPLINE
  5
15C
330
1F
100
AcDbEntity
  8
LAYER_1
 62
     5
100
AcDbSpline
210
0.0
220
0.0
230
1.0
 70
     8
 71
     3
 72
     8
 73
     4
 74
     0
 42
0.000000001
 43
0.0000001
 40
0.0
 40
0.0
 40
0.0
 40
0.0
 40
1.0
 40
1.0
 40
1.0
 40
1.0
 10
362.43183366792
 20
409.84527623419
 30
0.0
 10
361.98784094023
 20
410.2892689618799
 30
0.0
 10
361.38565598439
 20
410.53870282376
 30
0.0
 10
360.75775888596
 20
410.53870282376
 30
0.0
  0
LWPOLYLINE
  5
15D
330
1F
100
AcDbEntity
  8
LAYER_1
 62
     5
100
AcDbPolyline
 90
        2
 70
     1
 43
0.0
 10
313.61774859887
 20
410.53870282376
 10
313.61774859887
 20
410.53870282376
  0
SPLINE
  5
15E
330
1F
100
AcDbEntity
  8
LAYER_1
 62
     5
100
AcDbSpline
210
0.0
220
0.0
230
1.0
 70
     8
 71
     3
 72
     8
 73
     4
 74
     0
 42
0.000000001
 43
0.0000001
 40
0.0
 40
0.0
 40
0.0
 40
0.0
 40
1.0
 40
1.0
 40
1.0
 40
1.0
 10
360.75775888596
 20
457.67872066991
 30
0.0
 10
359.80019228328
 20
457.67872066991
 30
0.0
 10
358.93691739504
 20
457.10189636037
 30
0.0
 10
358.57047306389
 20
456.2172217732699
 30
0.0
  0
SPLINE
  5
15F
330
1F
100
AcDbEntity
  8
LAYER_1
 62
     5
100
AcDbSpline
210
0.0
220
0.0
230
1.0
 70
     8
 71
     3
 72
     8
 73
     4
 74
     0
 42
0.000000001
 43
0.0000001
 40
0.0
 40
0.0
 40
0.0
 40
0.0
 40
1.0
 40
1.0
 40
1.0
 40
1.0
 10
358.57047306389
 20
456.2172217732699
 30
0.0
 10
358.20402873274
 20
455.33254718617
 30
0.0
 10
358.4065813045
 20
454.31424353639
 30
0.0
 10
359.08368032447
 20
453.6371407368899
 30
0.0
  0
SPLINE
  5
160
330
1F
100
AcDbEntity
  8
LAYER_1
 62
     5
100
AcDbSpline
210
0.0
220
0.0
230
1.0
 70
     8
 71
     3
 72
     8
 73
     4
 74
     0
 42
0.000000001
 43
0.0000001
 40
0.0
 40
0.0
 40
0.0
 40
0.0
 40
1.0
 40
1.0
 40
1.0
 40
1.0
 10
359.08368032447
 20
453.6371407368899
 30
0.0
 10
359.76078312397
 20
452.96004171692
 30
0.0
 10
360.77908677375
 20
452.7574891451601
 30
0.0
 10
361.66376136085
 20
453.12392969678
 30
0.0
  0
SPLINE
  5
161
330
1F
100
AcDbEntity
  8
LAYER_1
 62
     5
100
AcDbSpline
210
0.0
220
0.0
230
1.0
 70
     8
 71
     3
 72
     8
 73
     4
 74
     0
 42
0.000000001
 43
0.0000001
 40
0.0
 40
0.0
 40
0.0
 40
0.0
 40
1.0
 40
1.0
 40
1.0
 40
1.0
 10
361.66376136085
 20
453.12392969678
 30
0.0
 10
362.54843594795
 20
453.49037402793
 30
0.0
 10
363.12526025749
 20
454.3536526956999
 30
0.0
 10
363.12526025749
 20
455.3112192983799
 30
0.0
  0
SPLINE
  5
162
330
1F
100
AcDbEntity
  8
LAYER_1
 62
     5
100
AcDbSpline
210
0.0
220
0.0
230
1.0
 70
     8
 71
     3
 72
     8
 73
     4
 74
     0
 42
0.000000001
 43
0.0000001
 40
0.0
 40
0.0
 40
0.0
 40
0.0
 40
1.0
 40
1.0
 40
1.0
 40
1.0
 10
363.12526025749
 20
455.3112192983799
 30
0.0
 10
363.12526025749
 20
455.9391163968099
 30
0.0
 10
362.87582639561
 20
456.54130135265
 30
0.0
 10
362.43183366792
 20
456.9852940803401
 30
0.0
  0
SPLINE
  5
163
330
1F
100
AcDbEntity
  8
LAYER_1
 62
     5
100
AcDbSpline
210
0.0
220
0.0
230
1.0
 70
     8
 71
     3
 72
     8
 73
     4
 74
     0
 42
0.000000001
 43
0.0000001
 40
0.0
 40
0.0
 40
0.0
 40
0.0
 40
1.0
 40
1.0
 40
1.0
 40
1.0
 10
362.43183366792
 20
456.9852940803401
 30
0.0
 10
361.98784094023
 20
457.4292868080299
 30
0.0
 10
361.38565598439
 20
457.67872066991
 30
0.0
 10
360.75775888596
 20
457.67872066991
 30
0.0
  0
LWPOLYLINE
  5
164
330
1F
100
AcDbEntity
  8
LAYER_1
 62
     5
100
AcDbPolyline
 90
        2
 70
     1
 43
0.0
 10
360.75775888596
 20
410.53870282376
 10
360.75775888596
 20
410.53870282376
  0
LWPOLYLINE
  5
165
330
1F
100
AcDbEntity
  8
LAYER_1
 62
     5
100
AcDbPolyline
 90
        2
 70
     1
 43
0.0
 10
360.75775888596
 20
457.67872066991
 10
360.75775888596
 20
457.67872066991
  0
LWPOLYLINE
  5
166
330
1F
100
AcDbEntity
  8
LAYER_1
 62
     3
100
AcDbPolyline
 90
        4
 70
     0
 43
0.0
 10
423.80830921238
 20
289.06167948801
 10
423.80830921238
 20
293.81063625583
 10
593.15566141712
 20
293.81063625583
 10
593.15566141712
 20
289.0538671995
  0
LWPOLYLINE
  5
167
330
1F
100
AcDbEntity
  8
LAYER_1
 62
     3
100
AcDbPolyline
 90
        4
 70
     0
 43
0.0
 10
423.89112249421
 20
573.81073645919
 10
423.89112249421
 20
569.0617796913701
 10
593.23847469895
 20
569.0617796913701
 10
593.23847469895
 20
573.7389027467191
  0
LWPOLYLINE
  5
168
330
1F
100
AcDbEntity
  8
LAYER_1
 62
     3
100
AcDbPolyline
 90
        3
 70
     0
 43
0.0
 10
867.95965243789
 20
220.50103930378
 10
867.95965243789
 20
203.1590400722499
 10
815.5650892281149
 20
203.1590400722499
  0
LWPOLYLINE
  5
169
330
1F
100
AcDbEntity
  8
LAYER_1
 62
     3
100
AcDbPolyline
 90
        4
 70
     0
 43
0.0
 10
646.2173422253709
 20
282.894498283617
 10
646.2173422253709
 20
287.643455051437
 10
815.5646944301109
 20
287.643455051437
 10
815.5646944301109
 20
282.894498283617
  0
LWPOLYLINE
  5
16A
330
1F
100
AcDbEntity
  8
LAYER_1
 62
     3
100
AcDbPolyline
 90
        5
 70
     0
 43
0.0
 10
815.5650691390853
 20
203.1590377583265
 10
815.5650691390853
 20
198.4100809905065
 10
646.2177169343453
 20
198.4100809905065
 10
646.2177169343453
 20
203.1590377583265
 10
646.2178333657083
 20
203.1590377583265
  0
LWPOLYLINE
  5
16C
330
1F
100
AcDbEntity
  8
LAYER_1
 62
     3
100
AcDbPolyline
 90
        4
 70
     0
 43
0.0
 10
593.2239211430787
 20
220.5002303796075
 10
588.4816163480587
 20
220.5002303796075
 10
588.4816163480587
 20
265.5071344071775
 10
593.2239211430787
 20
265.5071344071775
  0
LWPOLYLINE
  5
16D
330
1F
100
AcDbEntity
  8
LAYER_1
 62
     3
100
AcDbPolyline
 90
        2
 70
     0
 43
0.0
 10
423.45986678262
 20
203.15904385178
 10
371.06496050332
 20
203.159176322489
  0
LWPOLYLINE
  5
170
330
1F
100
AcDbEntity
  8
LAYER_1
 62
     3
100
AcDbPolyline
 90
        4
 70
     0
 43
0.0
 10
423.47101639612
 20
220.50103930378
 10
428.21332497067
 20
220.50103930378
 10
428.21332497067
 20
265.50794711088
 10
423.47101639612
 20
265.50794711088
  0
LWPOLYLINE
  5
171
330
1F
100
AcDbEntity
  8
LAYER_1
 62
     3
100
AcDbPolyline
 90
        4
 70
     0
 43
0.0
 10
148.72435706592
 20
220.4994447511176
 10
143.9817882974158
 20
220.4996030752895
 10
143.9817882974158
 20
265.50651088239
 10
148.7240930924358
 20
265.50651088239
  0
LWPOLYLINE
  5
172
330
1F
100
AcDbEntity
  8
LAYER_1
 62
     3
100
AcDbPolyline
 90
        2
 70
     0
 43
0.0
 10
668.2122365053
 20
289.06500169488
 10
593.15566141712
 20
289.0538671995
  0
LWPOLYLINE
  5
173
330
1F
100
AcDbEntity
  8
LAYER_1
 62
     3
100
AcDbPolyline
 90
        5
 70
     0
 43
0.0
 10
668.2122365053
 20
289.06500169488
 10
668.2122365053
 20
293.80731026943
 10
713.2191443124
 20
293.80731026943
 10
713.2191443124
 20
289.06500169488
 10
713.1992319999667
 20
289.06500169488
  0
LWPOLYLINE
  5
174
330
1F
100
AcDbEntity
  8
LAYER_1
 62
     3
100
AcDbPolyline
 90
        4
 70
     0
 43
0.0
 10
303.13659033373
 20
289.06500169488
 10
303.13659033373
 20
293.80731026943
 10
348.14349814083
 20
293.80731026943
 10
348.1422017709889
 20
289.0538671995
  0
LWPOLYLINE
  5
176
330
1F
100
AcDbEntity
  8
LAYER_1
 62
     3
100
AcDbPolyline
 90
        4
 70
     0
 43
0.0
 10
668.2123478423241
 20
573.8039942354364
 10
668.2123478423241
 20
569.0616856608865
 10
713.2192518698942
 20
569.0616856608865
 10
713.2192518698942
 20
573.8039942354364
  0
LWPOLYLINE
  5
177
330
1F
100
AcDbEntity
  8
LAYER_1
 62
     3
100
AcDbPolyline
 90
        4
 70
     0
 43
0.0
 10
371.4087399034348
 20
135.4828930576799
 10
366.6733214120748
 20
135.4828930576799
 10
366.6733214120748
 20
175.2183240744599
 10
371.4087399034348
 20
175.2183240744599
  0
LWPOLYLINE
  5
178
330
1F
100
AcDbEntity
  8
LAYER_1
 62
     3
100
AcDbPolyline
 90
        5
 70
     0
 43
0.0
 10
646.1576279872759
 20
135.4741459000747
 10
650.8930464786358
 20
135.4741459000747
 10
650.8930464786358
 20
175.2095769168548
 10
646.1576279872759
 20
175.2095769168548
 10
646.1576279872759
 20
175.1704729332678
  0
LWPOLYLINE
  5
179
330
1F
100
AcDbEntity
  8
LAYER_1
 62
     3
100
AcDbPolyline
 90
        4
 70
     0
 43
0.0
 10
646.15715958424
 20
107.9393550032755
 10
646.15715958424
 20
107.7282962352099
 10
371.41245805058
 20
107.7282962352099
 10
371.41245805058
 20
107.8288349319792
  0
LWPOLYLINE
  5
17A
330
1F
100
AcDbEntity
  8
LAYER_1
 62
     3
100
AcDbPolyline
 90
        4
 70
     0
 43
0.0
 10
926.4549859717218
 20
319.7593002812393
 10
926.4549859717218
 20
315.0103435134193
 10
1095.803997390132
 20
315.0103435134193
 10
1095.803997390132
 20
319.6496377446353
  0
LWPOLYLINE
  5
17B
330
1F
100
AcDbEntity
  8
LAYER_1
 62
     3
100
AcDbPolyline
 90
        4
 70
     0
 43
0.0
 10
1148.45401311794
 20
319.6496377446353
 10
1148.45401311794
 20
197.3572838843399
 10
873.80202345518
 20
197.3572838843399
 10
873.80202345518
 20
319.75920734498
  0
LWPOLYLINE
  5
17C
330
1F
100
AcDbEntity
  8
LAYER_1
 62
     3
100
AcDbPolyline
 90
        4
 70
     0
 43
0.0
 10
-78.9036637024189
 20
197.3659159242907
 10
-78.9036637024189
 20
202.1148689125806
 10
90.44534771599092
 20
202.1148689125806
 10
90.44534771599092
 20
197.3659159242907
  0
LWPOLYLINE
  5
17D
330
1F
100
AcDbEntity
  8
LAYER_1
 62
     3
100
AcDbPolyline
 90
        4
 70
     0
 43
0.0
 10
143.08918366276
 20
197.365682
 10
143.08918366276
 20
319.76760924017
 10
-131.562806
 20
319.76760924017
 10
-131.562806
 20
197.365682
  0
LWPOLYLINE
  5
17E
330
1F
100
AcDbEntity
  8
LAYER_1
 62
     3
100
AcDbPolyline
 90
        4
 70
     1
 43
0.0
 10
302.18273522951
 20
174.7277750962299
 10
312.182740428
 20
174.7277750962299
 10
312.182740428
 20
134.72776186133
 10
302.18273522951
 20
134.72776186133
  0
LWPOLYLINE
  5
17F
330
1F
100
AcDbEntity
  8
LAYER_1
 62
     3
100
AcDbPolyline
 90
        4
 70
     1
 43
0.0
 10
334.51608146578
 20
174.7277750962299
 10
344.51608666427
 20
174.7277750962299
 10
344.51608666427
 20
134.72776186133
 10
334.51608146578
 20
134.72776186133
  0
LWPOLYLINE
  5
180
330
1F
100
AcDbEntity
  8
LAYER_1
 62
     3
100
AcDbPolyline
 90
        4
 70
     1
 43
0.0
 10
318.64107656751
 20
174.7277750962299
 10
328.641081766
 20
174.7277750962299
 10
328.641081766
 20
134.72776186133
 10
318.64107656751
 20
134.72776186133
  0
LWPOLYLINE
  5
181
330
1F
100
AcDbEntity
  8
LAYER_1
 62
     3
100
AcDbPolyline
 90
        4
 70
     1
 43
0.0
 10
349.80776126291
 20
174.7277750962299
 10
359.80776268187
 20
174.7277750962299
 10
359.80776268187
 20
134.72776186133
 10
349.80776126291
 20
134.72776186133
  0
SPLINE
  5
183
330
1F
100
AcDbEntity
  8
LAYER_1
 62
     5
100
AcDbSpline
210
0.0
220
0.0
230
1.0
 70
     8
 71
     3
 72
     8
 73
     4
 74
     0
 42
0.000000001
 43
0.0000001
 40
0.0
 40
0.0
 40
0.0
 40
0.0
 40
1.0
 40
1.0
 40
1.0
 40
1.0
 10
286.42113890842
 20
274.6015529838299
 30
0.0
 10
285.6869311901499
 20
274.6015529838299
 30
0.0
 10
285.02501454219
 20
274.15927616276
 30
0.0
 10
284.74404428199
 20
273.4809563546
 30
0.0
  0
SPLINE
  5
184
330
1F
100
AcDbEntity
  8
LAYER_1
 62
     5
100
AcDbSpline
210
0.0
220
0.0
230
1.0
 70
     8
 71
     3
 72
     8
 73
     4
 74
     0
 42
0.000000001
 43
0.0000001
 40
0.0
 40
0.0
 40
0.0
 40
0.0
 40
1.0
 40
1.0
 40
1.0
 40
1.0
 10
284.74404428199
 20
273.4809563546
 30
0.0
 10
284.46307402179
 20
272.80263654644
 30
0.0
 10
284.61838246855
 20
272.0218536799799
 30
0.0
 10
285.13754626841
 20
271.50268988012
 30
0.0
  0
SPLINE
  5
185
330
1F
100
AcDbEntity
  8
LAYER_1
 62
     5
100
AcDbSpline
210
0.0
220
0.0
230
1.0
 70
     8
 71
     3
 72
     8
 73
     4
 74
     0
 42
0.000000001
 43
0.0000001
 40
0.0
 40
0.0
 40
0.0
 40
0.0
 40
1.0
 40
1.0
 40
1.0
 40
1.0
 10
285.13754626841
 20
271.50268988012
 30
0.0
 10
285.6567138478
 20
270.98352230073
 30
0.0
 10
286.43749293473
 20
270.8282176334999
 30
0.0
 10
287.11581652242
 20
271.1091878937
 30
0.0
  0
SPLINE
  5
186
330
1F
100
AcDbEntity
  8
LAYER_1
 62
     5
100
AcDbSpline
210
0.0
220
0.0
230
1.0
 70
     8
 71
     3
 72
     8
 73
     4
 74
     0
 42
0.000000001
 43
0.0000001
 40
0.0
 40
0.0
 40
0.0
 40
0.0
 40
1.0
 40
1.0
 40
1.0
 40
1.0
 10
287.11581652242
 20
271.1091878937
 30
0.0
 10
287.79413633058
 20
271.3901581539
 30
0.0
 10
288.23641315165
 20
272.05207102233
 30
0.0
 10
288.23641315165
 20
272.78628252013
 30
0.0
  0
SPLINE
  5
187
330
1F
100
AcDbEntity
  8
LAYER_1
 62
     5
100
AcDbSpline
210
0.0
220
0.0
230
1.0
 70
     8
 71
     3
 72
     8
 73
     4
 74
     0
 42
0.000000001
 43
0.0000001
 40
0.0
 40
0.0
 40
0.0
 40
0.0
 40
1.0
 40
1.0
 40
1.0
 40
1.0
 10
288.23641315165
 20
272.78628252013
 30
0.0
 10
288.23641315165
 20
273.2677228310599
 30
0.0
 10
288.04516137459
 20
273.7294453339799
 30
0.0
 10
287.70473154843
 20
274.06987516014
 30
0.0
  0
SPLINE
  5
188
330
1F
100
AcDbEntity
  8
LAYER_1
 62
     5
100
AcDbSpline
210
0.0
220
0.0
230
1.0
 70
     8
 71
     3
 72
     8
 73
     4
 74
     0
 42
0.000000001
 43
0.0000001
 40
0.0
 40
0.0
 40
0.0
 40
0.0
 40
1.0
 40
1.0
 40
1.0
 40
1.0
 10
287.70473154843
 20
274.06987516014
 30
0.0
 10
287.3643017222699
 20
274.4103049863
 30
0.0
 10
286.90257921935
 20
274.6015529838299
 30
0.0
 10
286.42113890842
 20
274.6015529838299
 30
0.0
  0
LWPOLYLINE
  5
189
330
1F
100
AcDbEntity
  8
LAYER_1
 62
     5
100
AcDbPolyline
 90
        4
 70
     1
 43
0.0
 10
715.81518252444
 20
273.80386050015
 10
733.8151903699099
 20
273.80386050015
 10
733.8151903699099
 20
262.30385811244
 10
715.81518252444
 20
262.30385811244
  0
LWPOLYLINE
  5
18A
330
1F
100
AcDbEntity
  8
LAYER_1
 62
     5
100
AcDbPolyline
 90
        2
 70
     1
 43
0.0
 10
286.42113890842
 20
274.6015529838299
 10
286.42113890842
 20
274.6015529838299
  0
LWPOLYLINE
  5
18B
330
1F
100
AcDbEntity
  8
LAYER_1
 62
     5
100
AcDbPolyline
 90
        4
 70
     1
 43
0.0
 10
500.6203172453
 20
198.36892422273
 10
516.96147803518
 20
198.36892422273
 10
516.96147803518
 20
198.22776633629
 10
500.6203172453
 20
198.22776633629
  0
LINE
  5
10190
330
1F
100
AcDbEntity
  8
0
  6
ByBlock
 62
     5
100
AcDbLine
 10
650.8082571268153
 20
453.0434494401926
 30
0.0
 11
650.8207144232094
 21
409.1661727666857
 31
0.0
  0
LINE
  5
10191
330
1F
100
AcDbEntity
  8
0
  6
ByBlock
 62
     5
100
AcDbLine
 10
650.8207144232094
 20
309.4311376458561
 30
0.0
 11
650.8207144232094
 21
289.0538671995
 31
0.0
  0
LINE
  5
10192
330
1F
100
AcDbEntity
  8
0
  6
ByBlock
 62
     5
100
AcDbLine
 10
365.5490659246219
 20
453.0454853183463
 30
0.0
 11
365.5479054683796
 21
409.0744341266985
 31
0.0
  0
LINE
  5
10194
330
1F
100
AcDbEntity
  8
0
  6
ByBlock
 62
     5
100
AcDbLine
 10
365.5490659246219
 20
552.7805204391765
 30
0.0
 11
365.5490659246219
 21
573.80397110049
 31
0.0
  0
LWPOLYLINE
  5
10195
330
1F
100
AcDbEntity
  8
LAYER_1
 62
     5
100
AcDbPolyline
 90
        5
 70
     0
 43
0.0
 10
365.5490659246219
 20
453.0454872463409
 10
365.5490659246219
 20
453.0454853183463
 10
370.2840686676819
 20
453.0454853183463
 10
370.2840686676819
 20
552.7805204391765
 10
365.5490659246219
 20
552.7805204391765
  0
LWPOLYLINE
  5
10196
330
1F
100
AcDbEntity
  8
LAYER_1
 62
     5
100
AcDbPolyline
 90
        5
 70
     0
 43
0.0
 10
650.8082571268153
 20
453.0592016310372
 10
650.8082571268153
 20
453.0434494401926
 10
646.0732506042253
 20
453.0434494401926
 10
646.0732506042253
 20
552.7784845610228
 10
650.8082571268153
 20
552.7784845610228
  0
LINE
  5
10197
330
1F
100
AcDbEntity
  8
0
  6
ByBlock
 62
     3
100
AcDbLine
 10
348.1422017709889
 20
289.0538671995
 30
0.0
 11
365.5503465481
 21
289.0538671995
 31
0.0
  0
LINE
  5
10198
330
1F
100
AcDbEntity
  8
0
  6
ByBlock
 62
     3
100
AcDbLine
 10
1148.45401311794
 20
319.6496377446353
 30
0.0
 11
1095.803997390132
 21
319.6496377446353
 31
0.0
  0
LINE
  5
10199
330
1F
100
AcDbEntity
  8
0
  6
ByBlock
 62
     3
100
AcDbLine
 10
926.4549859717218
 20
319.7593002812393
 30
0.0
 11
873.80202345518
 21
319.75920734498
 31
0.0
  0
LINE
  5
1019A
330
1F
100
AcDbEntity
  8
0
  6
ByBlock
 62
     3
100
AcDbLine
 10
143.08918366276
 20
197.365682
 30
0.0
 11
90.44534771599092
 21
197.3659159242907
 31
0.0
  0
LINE
  5
1019B
330
1F
100
AcDbEntity
  8
0
  6
ByBlock
 62
     3
100
AcDbLine
 10
-78.9036637024189
 20
197.3659159242907
 30
0.0
 11
-131.562806
 21
197.365682
 31
0.0
  0
LINE
  5
1019C
330
1F
100
AcDbEntity
  8
0
  6
ByBlock
 62
     3
100
AcDbLine
 10
646.15715958424
 20
107.7282962352099
 30
0.0
 11
646.1576279872759
 21
135.4741459000747
 31
0.0
  0
LINE
  5
1019D
330
1F
100
AcDbEntity
  8
0
  6
ByBlock
 62
     3
100
AcDbLine
 10
646.1576279872759
 20
175.2095769168548
 30
0.0
 11
646.15715958424
 21
202.97293601505
 31
0.0
  0
LWPOLYLINE
  5
1019E
330
1F
100
AcDbEntity
  8
LAYER_1
 62
     3
100
AcDbPolyline
 90
        2
 70
     0
 43
0.0
 10
371.41245805058
 20
202.97293601505
 10
646.15715958424
 20
202.97293601505
  0
LINE
  5
1019F
330
1F
100
AcDbEntity
  8
0
  6
ByBlock
 62
     3
100
AcDbLine
 10
371.41245805058
 20
107.8288349319792
 30
0.0
 11
371.4087399034348
 21
135.4828930576799
 31
0.0
  0
LINE
  5
101A0
330
1F
100
AcDbEntity
  8
0
  6
ByBlock
 62
     3
100
AcDbLine
 10
371.4087399034348
 20
175.2183240744599
 30
0.0
 11
371.41245805058
 21
202.97293601505
 31
0.0
  0
LINE
  5
101A1
330
1F
100
AcDbEntity
  8
0
  6
ByBlock
 62
     3
100
AcDbLine
 10
713.2192518698942
 20
573.8039942354364
 30
0.0
 11
730.71193923187
 21
573.80726307112
 31
0.0
  0
LINE
  5
101A2
330
1F
100
AcDbEntity
  8
0
  6
ByBlock
 62
     3
100
AcDbLine
 10
593.23847469895
 20
573.7389027467191
 30
0.0
 11
650.8149290620387
 21
573.7389027467191
 31
0.0
  0
LWPOLYLINE
  5
101A3
330
1F
100
AcDbEntity
  8
LAYER_1
 62
     3
100
AcDbPolyline
 90
        4
 70
     0
 43
0.0
 10
303.1319543788339
 20
573.8074097203292
 10
303.1412262886261
 20
569.0651102097606
 10
348.1480480739567
 20
569.1531053249356
 10
348.1389482077034
 20
573.8074098044219
  0
LINE
  5
101A4
330
1F
100
AcDbEntity
  8
0
  6
ByBlock
 62
     3
100
AcDbLine
 10
303.1319543788339
 20
573.8074097203292
 30
0.0
 11
285.65339542046
 21
573.80726307112
 31
0.0
  0
LINE
  5
101A6
330
1F
100
AcDbEntity
  8
0
  6
ByBlock
 62
     3
100
AcDbLine
 10
423.45986678262
 20
282.8944918829899
 30
0.0
 11
423.47101639612
 21
265.50794711088
 31
0.0
  0
LINE
  5
101A7
330
1F
100
AcDbEntity
  8
0
  6
ByBlock
 62
     3
100
AcDbLine
 10
423.47101639612
 20
220.50103930378
 30
0.0
 11
423.47101639612
 21
203.15904385178
 31
0.0
  0
LWPOLYLINE
  5
101A8
330
1F
100
AcDbEntity
  8
LAYER_1
 62
     3
100
AcDbPolyline
 90
        4
 70
     0
 43
0.0
 10
201.7176059670148
 20
282.8948068703564
 10
201.7176059670148
 20
287.643448651319
 10
371.0649581717548
 20
287.643448651319
 10
371.0649581717548
 20
282.894491883499
  0
LWPOLYLINE
  5
101A9
330
1F
100
AcDbEntity
  8
LAYER_1
 62
     3
100
AcDbPolyline
 90
        2
 70
     0
 43
0.0
 10
371.0649581717549
 20
282.8944918829899
 10
423.45986678262
 20
282.8944918829899
  0
LWPOLYLINE
  5
101AA
330
1F
100
AcDbEntity
  8
LAYER_1
 62
     3
100
AcDbPolyline
 90
        3
 70
     0
 43
0.0
 10
148.72435706592
 20
265.50651088239
 10
148.72435706592
 20
282.8944918829899
 10
201.7177967064351
 20
282.8944918829899
  0
LWPOLYLINE
  5
101AB
330
1F
100
AcDbEntity
  8
LAYER_1
 62
     3
100
AcDbPolyline
 90
        3
 70
     0
 43
0.0
 10
201.71760829858
 20
203.15904385178
 10
148.72435706592
 20
203.15904385178
 10
148.72435706592
 20
220.4994447511176
  0
LWPOLYLINE
  5
101AC
330
1F
100
AcDbEntity
  8
LAYER_1
 62
     3
100
AcDbPolyline
 90
        4
 70
     0
 43
0.0
 10
371.06496050332
 20
203.159176322489
 10
371.06496050332
 20
198.40227479545
 10
201.71760829858
 20
198.40227479545
 10
201.71760829858
 20
203.15904385178
  0
LWPOLYLINE
  5
101AD
330
1F
100
AcDbEntity
  8
LAYER_1
 62
     3
100
AcDbPolyline
 90
        5
 70
     0
 43
0.0
 10
867.9596554612913
 20
220.5010832409919
 10
867.9596554612913
 20
220.5010495605214
 10
872.7019640358413
 20
220.5010495605214
 10
872.7019640358413
 20
265.5079535880914
 10
867.9596554612913
 20
265.5079535880914
  0
LWPOLYLINE
  5
101AE
330
1F
100
AcDbEntity
  8
LAYER_1
 62
     3
100
AcDbPolyline
 90
        3
 70
     0
 43
0.0
 10
593.2241389416599
 20
265.50794333135
 10
593.2241389416599
 20
282.8944918829899
 10
646.21731458372
 20
282.8944918829899
  0
LWPOLYLINE
  5
101AF
330
1F
100
AcDbEntity
  8
LAYER_1
 62
     3
100
AcDbPolyline
 90
        3
 70
     0
 43
0.0
 10
646.21739017432
 20
203.1590400722499
 10
593.2241389416599
 20
203.1590400722499
 10
593.2241389416599
 20
220.5000844912578
  0
LWPOLYLINE
  5
101B0
330
1F
100
AcDbEntity
  8
LAYER_1
 62
     3
100
AcDbPolyline
 90
        3
 70
     0
 43
0.0
 10
815.5651504334172
 20
282.8944918829899
 10
867.95965243789
 20
282.8944918829899
 10
867.95965243789
 20
265.5079853658711
  0
ENDSEC
  0
SECTION
  2
OBJECTS
  0
DICTIONARY
  5
C
330
0
100
AcDbDictionary
281
     1
  3
ACAD_DETAILVIEWSTYLE
350
10052
  3
ACAD_GROUP
350
D
  3
ACAD_LAYOUT
350
1014D
  3
ACAD_MATERIAL
350
10169
  3
ACAD_MLEADERSTYLE
350
1016F
  3
ACAD_MLINESTYLE
350
17
  3
ACAD_PLOTSETTINGS
350
10128
  3
ACAD_PLOTSTYLENAME
350
10129
  3
ACAD_SCALELIST
350
1012B
  3
ACAD_SECTIONVIEWSTYLE
350
10053
  3
ACAD_TABLESTYLE
350
1016D
  3
ACAD_VISUALSTYLE
350
10150
  3
ACDB_RECOMPOSE_DATA
350
101BF
  3
ACDBVARIABLEDICTIONARY
350
1004D
  3
APPDATA
350
10049
  0
SUN
  5
1018F
330
2E
100
AcDbSun
 90
        1
290
     0
 63
     7
421
 16777215
 40
1.0
291
     1
 91
  2455826
 92
 54000000
292
     0
 70
     2
 71
   256
280
     1
  0
DICTIONARY
  5
10060
330
1F
100
AcDbDictionary
280
     1
281
     1
  3
DIM_BOUNDING_BOXES_V1
360
10061
  0
DICTIONARY
  5
10052
102
{ACAD_REACTORS
330
C
102
}
330
C
100
AcDbDictionary
281
     1
  0
DICTIONARY
  5
D
330
C
100
AcDbDictionary
281
     1
  3
*A1
350
10184
  3
*A2
350
10185
  3
*A3
350
10186
  3
*A4
350
10187
  3
*A5
350
101B9
  3
*A6
350
101BA
  3
*A7
350
101BB
  3
*A8
350
101BC
  0
DICTIONARY
  5
1014D
102
{ACAD_REACTORS
330
C
102
}
330
C
100
AcDbDictionary
281
     1
  3
Model
350
1014E
  3
Sheet1
350
1014F
  0
DICTIONARY
  5
10169
102
{ACAD_REACTORS
330
C
102
}
330
C
100
AcDbDictionary
281
     1
  3
ByBlock
350
1016B
  3
ByLayer
350
1016A
  3
Global
350
1016C
  0
DICTIONARY
  5
1016F
102
{ACAD_REACTORS
330
C
102
}
330
C
100
AcDbDictionary
281
     1
  3
Standard
350
10170
  0
DICTIONARY
  5
17
330
C
100
AcDbDictionary
281
     1
  3
STANDARD
350
FFFF
  0
DICTIONARY
  5
10128
102
{ACAD_REACTORS
330
C
102
}
330
C
100
AcDbDictionary
281
     1
  0
ACDBDICTIONARYWDFLT
  5
10129
102
{ACAD_REACTORS
330
C
102
}
330
C
100
AcDbDictionary
281
     1
  3
Normal
350
1012A
100
AcDbDictionaryWithDefault
340
1012A
  0
DICTIONARY
  5
1012B
102
{ACAD_REACTORS
330
C
102
}
330
C
100
AcDbDictionary
281
     1
  3
A0
350
1012C
  3
A1
350
1012D
  3
A2
350
1012E
  3
A3
350
1012F
  3
A4
350
10130
  3
A5
350
10131
  3
A6
350
10132
  3
A7
350
10133
  3
A8
350
10134
  3
A9
350
10135
  3
B0
350
10136
  3
B1
350
10137
  3
B2
350
10138
  3
B3
350
10139
  3
B4
350
1013A
  3
B5
350
1013B
  3
B6
350
1013C
  3
B7
350
1013D
  3
B8
350
1013E
  3
B9
350
1013F
  3
C0
350
10140
  3
C1
350
10141
  3
C2
350
10142
  3
C3
350
10143
  3
C4
350
10144
  3
C5
350
10145
  3
C6
350
10146
  3
C7
350
10147
  3
C8
350
10148
  3
C9
350
10149
  3
D0
350
1014A
  3
D1
350
1014B
  3
D2
350
1014C
  0
DICTIONARY
  5
10053
102
{ACAD_REACTORS
330
C
102
}
330
C
100
AcDbDictionary
281
     1
  0
DICTIONARY
  5
1016D
102
{ACAD_REACTORS
330
C
102
}
330
C
100
AcDbDictionary
281
     1
  3
Standard
350
1016E
  0
DICTIONARY
  5
10150
102
{ACAD_REACTORS
330
C
102
}
330
C
100
AcDbDictionary
281
     1
  3
2dWireframe
350
10155
  3
Basic
350
10158
  3
Brighten
350
1015C
  3
ColorChange
350
10160
  3
Conceptual
350
1015A
  3
Dim
350
1015B
  3
EdgeColorOff
350
10163
  3
Facepattern
350
1015F
  3
Flat
350
10151
  3
FlatWithEdges
350
10152
  3
Gouraud
350
10153
  3
GouraudWithEdges
350
10154
  3
Hidden
350
10157
  3
JitterOff
350
10161
  3
Linepattern
350
1015E
  3
OverhangOff
350
10162
  3
Realistic
350
10159
  3
Shaded
350
10168
  3
Shaded with edges
350
10167
  3
Shades of Gray
350
10164
  3
Sketchy
350
10165
  3
Thicken
350
1015D
  3
Wireframe
350
10156
  3
X-Ray
350
10166
  0
XRECORD
  5
101BF
102
{ACAD_REACTORS
330
C
102
}
330
C
100
AcDbXrecord
280
     1
 90
        1
330
1016E
  0
DICTIONARY
  5
1004D
102
{ACAD_REACTORS
330
C
102
}
330
C
100
AcDbDictionary
281
     1
  3
CANNOSCALE
350
10175
  3
CMLEADERSTYLE
350
10177
  3
CTABLESTYLE
350
10176
  3
MSLTSCALE
350
10178
  0
DICTIONARY
  5
10049
102
{ACAD_REACTORS
330
C
102
}
330
C
100
AcDbDictionary
281
     1
  0
DICTIONARY
  5
10061
102
{ACAD_REACTORS
330
10060
102
}
330
10060
100
AcDbDictionary
281
     1
  0
GROUP
  5
10184
102
{ACAD_REACTORS
330
D
102
}
330
D
100
AcDbGroup
300

 70
     1
 71
     1
340
13B
340
13C
340
13D
340
13E
340
13F
340
140
340
148
  0
GROUP
  5
10185
102
{ACAD_REACTORS
330
D
102
}
330
D
100
AcDbGroup
300

 70
     1
 71
     1
340
134
340
135
340
136
340
137
340
138
340
139
340
141
  0
GROUP
  5
10186
102
{ACAD_REACTORS
330
D
102
}
330
D
100
AcDbGroup
300

 70
     1
 71
     1
340
126
340
127
340
128
340
129
340
12A
340
12B
340
133
  0
GROUP
  5
10187
102
{ACAD_REACTORS
330
D
102
}
330
D
100
AcDbGroup
300

 70
     1
 71
     1
340
12D
340
12E
340
12F
340
130
340
131
340
132
340
13A
  0
GROUP
  5
101B9
102
{ACAD_REACTORS
330
D
102
}
330
D
100
AcDbGroup
300

 70
     1
 71
     1
340
112
340
117
340
116
340
115
340
114
340
113
  0
GROUP
  5
101BA
102
{ACAD_REACTORS
330
D
102
}
330
D
100
AcDbGroup
300

 70
     1
 71
     1
340
112
340
117
340
116
340
115
340
114
340
113
  0
GROUP
  5
101BB
102
{ACAD_REACTORS
330
D
102
}
330
D
100
AcDbGroup
300

 70
     1
 71
     1
340
114
340
115
340
116
  0
GROUP
  5
101BC
102
{ACAD_REACTORS
330
D
102
}
330
D
100
AcDbGroup
300

 70
     1
 71
     1
340
112
340
113
340
114
340
115
340
116
340
117
340
119
  0
LAYOUT
  5
1014E
102
{ACAD_REACTORS
330
1014D
102
}
330
1014D
100
AcDbPlotSettings
  1

  2
none_device
  4
Letter_(8.50_x_11.00_Inches)
  6

 40
6.35
 41
6.35
 42
6.35
 43
6.35
 44
215.9
 45
279.4
 46
0.0
 47
0.0
 48
0.0
 49
0.0
140
0.0
141
0.0
142
1.0
143
289.0692816840258
 70
  1712
 72
     0
 73
     0
 74
     0
  7

 75
     0
 76
     0
 77
     2
 78
   300
147
0.0034593782991203
148
13517.61681945961
149
6666.409407502667
100
AcDbLayout
  1
Model
 70
     1
 71
     0
 10
0.0
 20
0.0
 11
12.0
 21
9.0
 12
0.0
 22
0.0
 32
0.0
 14
-133.79782728597
 24
107.7282962352099
 34
0.0
 15
1150.1631619383
 25
573.9362622095499
 35
0.0
146
0.0
 13
0.0
 23
0.0
 33
0.0
 16
1.0
 26
0.0
 36
0.0
 17
0.0
 27
1.0
 37
0.0
 76
     0
330
1F
331
2E
  0
LAYOUT
  5
1014F
102
{ACAD_REACTORS
330
1014D
102
}
330
1014D
100
AcDbPlotSettings
  1

  2
none_device
  4

  6

 40
0.0
 41
0.0
 42
0.0
 43
0.0
 44
0.0
 45
0.0
 46
0.0
 47
0.0
 48
0.0
 49
0.0
140
0.0
141
0.0
142
1.0
143
1.0
 70
   688
 72
     1
 73
     0
 74
     5
  7

 75
    16
 76
     0
 77
     2
 78
   300
147
1.0
148
0.0
149
0.0
100
AcDbLayout
  1
Sheet1
 70
     1
 71
     1
 10
0.0
 20
0.0
 11
0.0
 21
0.0
 12
0.0
 22
0.0
 32
0.0
 14
1.000000000000000E+20
 24
1.000000000000000E+20
 34
1.000000000000000E+20
 15
-1.000000000000000E+20
 25
-1.000000000000000E+20
 35
-1.000000000000000E+20
146
0.0
 13
0.0
 23
0.0
 33
0.0
 16
1.0
 26
0.0
 36
0.0
 17
0.0
 27
1.0
 37
0.0
 76
     0
330
1B
  0
MATERIAL
  5
1016B
102
{ACAD_REACTORS
330
10169
102
}
330
10169
100
AcDbMaterial
  1
ByBlock
 72
     1
 94
      127
  0
MATERIAL
  5
1016A
102
{ACAD_REACTORS
330
10169
102
}
330
10169
100
AcDbMaterial
  1
ByLayer
 72
     1
 94
      127
  0
MATERIAL
  5
1016C
102
{ACAD_REACTORS
330
10169
102
}
330
10169
100
AcDbMaterial
  1
Global
 72
     1
 94
      127
  0
MLEADERSTYLE
  5
10170
102
{ACAD_REACTORS
330
1016F
102
}
330
1016F
100
AcDbMLeaderStyle
179
     2
170
     2
171
     1
172
     0
 90
        2
 40
0.0
 41
0.0
173
     1
 91
-1056964608
340
14
 92
       -2
290
     1
 42
2.0
291
     1
 43
8.0
  3
Standard
341
0
 44
4.0
300

342
11
174
     1
178
     1
175
     1
176
     0
 93
-1056964608
 45
4.0
292
     0
297
     0
 46
4.0
343
0
 94
-1056964608
 47
1.0
 49
1.0
140
1.0
293
     1
141
0.0
294
     1
177
     0
142
1.0
295
     0
296
     0
143
3.75
271
     0
272
     9
273
     9
298
     0
  0
MLINESTYLE
  5
FFFF
102
{ACAD_REACTORS
330
17
102
}
330
17
100
AcDbMlineStyle
  2
Standard
 70
     0
  3

 62
   256
 51
90.0
 52
90.0
 71
     2
 49
0.5
 62
   256
  6
BYLAYER
 49
-0.5
 62
   256
  6
BYLAYER
  0
ACDBPLACEHOLDER
  5
1012A
102
{ACAD_REACTORS
330
10129
102
}
330
10129
  0
SCALE
  5
1012C
102
{ACAD_REACTORS
330
1012B
102
}
330
1012B
100
AcDbScale
 70
     0
300
1:1
140
1.0
141
1.0
290
     1
  0
SCALE
  5
1012D
102
{ACAD_REACTORS
330
1012B
102
}
330
1012B
100
AcDbScale
 70
     0
300
1:2
140
1.0
141
2.0
290
     0
  0
SCALE
  5
1012E
102
{ACAD_REACTORS
330
1012B
102
}
330
1012B
100
AcDbScale
 70
     0
300
1:4
140
1.0
141
4.0
290
     0
  0
SCALE
  5
1012F
102
{ACAD_REACTORS
330
1012B
102
}
330
1012B
100
AcDbScale
 70
     0
300
1:5
140
1.0
141
5.0
290
     0
  0
SCALE
  5
10130
102
{ACAD_REACTORS
330
1012B
102
}
330
1012B
100
AcDbScale
 70
     0
300
1:8
140
1.0
141
8.0
290
     0
  0
SCALE
  5
10131
102
{ACAD_REACTORS
330
1012B
102
}
330
1012B
100
AcDbScale
 70
     0
300
1:10
140
1.0
141
10.0
290
     0
  0
SCALE
  5
10132
102
{ACAD_REACTORS
330
1012B
102
}
330
1012B
100
AcDbScale
 70
     0
300
1:16
140
1.0
141
16.0
290
     0
  0
SCALE
  5
10133
102
{ACAD_REACTORS
330
1012B
102
}
330
1012B
100
AcDbScale
 70
     0
300
1:20
140
1.0
141
20.0
290
     0
  0
SCALE
  5
10134
102
{ACAD_REACTORS
330
1012B
102
}
330
1012B
100
AcDbScale
 70
     0
300
1:30
140
1.0
141
30.0
290
     0
  0
SCALE
  5
10135
102
{ACAD_REACTORS
330
1012B
102
}
330
1012B
100
AcDbScale
 70
     0
300
1:40
140
1.0
141
40.0
290
     0
  0
SCALE
  5
10136
102
{ACAD_REACTORS
330
1012B
102
}
330
1012B
100
AcDbScale
 70
     0
300
1:50
140
1.0
141
50.0
290
     0
  0
SCALE
  5
10137
102
{ACAD_REACTORS
330
1012B
102
}
330
1012B
100
AcDbScale
 70
     0
300
1:100
140
1.0
141
100.0
290
     0
  0
SCALE
  5
10138
102
{ACAD_REACTORS
330
1012B
102
}
330
1012B
100
AcDbScale
 70
     0
300
2:1
140
2.0
141
1.0
290
     0
  0
SCALE
  5
10139
102
{ACAD_REACTORS
330
1012B
102
}
330
1012B
100
AcDbScale
 70
     0
300
4:1
140
4.0
141
1.0
290
     0
  0
SCALE
  5
1013A
102
{ACAD_REACTORS
330
1012B
102
}
330
1012B
100
AcDbScale
 70
     0
300
8:1
140
8.0
141
1.0
290
     0
  0
SCALE
  5
1013B
102
{ACAD_REACTORS
330
1012B
102
}
330
1012B
100
AcDbScale
 70
     0
300
10:1
140
10.0
141
1.0
290
     0
  0
SCALE
  5
1013C
102
{ACAD_REACTORS
330
1012B
102
}
330
1012B
100
AcDbScale
 70
     0
300
100:1
140
100.0
141
1.0
290
     0
  0
SCALE
  5
1013D
102
{ACAD_REACTORS
330
1012B
102
}
330
1012B
100
AcDbScale
 70
     0
300
1/128" = 1'-0"
140
0.0078125
141
12.0
290
     0
  0
SCALE
  5
1013E
102
{ACAD_REACTORS
330
1012B
102
}
330
1012B
100
AcDbScale
 70
     0
300
1/64" = 1'-0"
140
0.015625
141
12.0
290
     0
  0
SCALE
  5
1013F
102
{ACAD_REACTORS
330
1012B
102
}
330
1012B
100
AcDbScale
 70
     0
300
1/32" = 1'-0"
140
0.03125
141
12.0
290
     0
  0
SCALE
  5
10140
102
{ACAD_REACTORS
330
1012B
102
}
330
1012B
100
AcDbScale
 70
     0
300
1/16" = 1'-0"
140
0.0625
141
12.0
290
     0
  0
SCALE
  5
10141
102
{ACAD_REACTORS
330
1012B
102
}
330
1012B
100
AcDbScale
 70
     0
300
3/32" = 1'-0"
140
0.09375
141
12.0
290
     0
  0
SCALE
  5
10142
102
{ACAD_REACTORS
330
1012B
102
}
330
1012B
100
AcDbScale
 70
     0
300
1/8" = 1'-0"
140
0.125
141
12.0
290
     0
  0
SCALE
  5
10143
102
{ACAD_REACTORS
330
1012B
102
}
330
1012B
100
AcDbScale
 70
     0
300
3/16" = 1'-0"
140
0.1875
141
12.0
290
     0
  0
SCALE
  5
10144
102
{ACAD_REACTORS
330
1012B
102
}
330
1012B
100
AcDbScale
 70
     0
300
1/4" = 1'-0"
140
0.25
141
12.0
290
     0
  0
SCALE
  5
10145
102
{ACAD_REACTORS
330
1012B
102
}
330
1012B
100
AcDbScale
 70
     0
300
3/8" = 1'-0"
140
0.375
141
12.0
290
     0
  0
SCALE
  5
10146
102
{ACAD_REACTORS
330
1012B
102
}
330
1012B
100
AcDbScale
 70
     0
300
1/2" = 1'-0"
140
0.5
141
12.0
290
     0
  0
SCALE
  5
10147
102
{ACAD_REACTORS
330
1012B
102
}
330
1012B
100
AcDbScale
 70
     0
300
3/4" = 1'-0"
140
0.75
141
12.0
290
     0
  0
SCALE
  5
10148
102
{ACAD_REACTORS
330
1012B
102
}
330
1012B
100
AcDbScale
 70
     0
300
1" = 1'-0"
140
1.0
141
12.0
290
     0
  0
SCALE
  5
10149
102
{ACAD_REACTORS
330
1012B
102
}
330
1012B
100
AcDbScale
 70
     0
300
1-1/2" = 1'-0"
140
1.5
141
12.0
290
     0
  0
SCALE
  5
1014A
102
{ACAD_REACTORS
330
1012B
102
}
330
1012B
100
AcDbScale
 70
     0
300
3" = 1'-0"
140
3.0
141
12.0
290
     0
  0
SCALE
  5
1014B
102
{ACAD_REACTORS
330
1012B
102
}
330
1012B
100
AcDbScale
 70
     0
300
6" = 1'-0"
140
6.0
141
12.0
290
     0
  0
SCALE
  5
1014C
102
{ACAD_REACTORS
330
1012B
102
}
330
1012B
100
AcDbScale
 70
     0
300
1'-0" = 1'-0"
140
12.0
141
12.0
290
     0
  0
TABLESTYLE
  5
1016E
102
{ACAD_REACTORS
330
1016D
102
}
102
{ACAD_XDICTIONARY
360
101BD
102
}
330
1016D
100
AcDbTableStyle
  3
Standard
 70
     0
 71
     0
 40
0.06
 41
0.06
280
     0
281
     0
  7
STANDARD
140
4.5
170
     2
 62
     0
 63
   257
283
     0
 90
        4
 91
        0
  1

274
    -2
284
     1
 64
     0
275
    -2
285
     1
 65
     0
276
    -2
286
     1
 66
     0
277
    -2
287
     1
 67
     0
278
    -2
288
     1
 68
     0
279
    -2
289
     1
 69
     0
  7
STANDARD
140
6.0
170
     5
 62
     0
 63
   257
283
     0
 90
        4
 91
        0
  1

274
    -2
284
     1
 64
     0
275
    -2
285
     1
 65
     0
276
    -2
286
     1
 66
     0
277
    -2
287
     1
 67
     0
278
    -2
288
     1
 68
     0
279
    -2
289
     1
 69
     0
  7
STANDARD
140
4.5
170
     5
 62
     0
 63
   257
283
     0
 90
        4
 91
        0
  1

274
    -2
284
     1
 64
     0
275
    -2
285
     1
 65
     0
276
    -2
286
     1
 66
     0
277
    -2
287
     1
 67
     0
278
    -2
288
     1
 68
     0
279
    -2
289
     1
 69
     0
  0
VISUALSTYLE
  5
10155
102
{ACAD_REACTORS
330
10150
102
}
330
10150
100
AcDbVisualStyle
  2
2dWireframe
 70
     4
177
     3
291
     0
 70
    58
 90
        0
176
     1
 90
        2
176
     1
 90
        0
176
     1
 90
        0
176
     1
 40
0.6
176
     1
 40
30.0
176
     1
 62
     7
420
 16777215
176
     1
 90
        1
176
     1
 90
        4
176
     1
 62
     7
176
     1
 62
   257
176
     1
 90
        1
176
     1
 90
        1
176
     1
 40
1.0
176
     1
 90
        0
176
     1
 62
   257
176
     1
 40
1.0
176
     1
 90
        1
176
     1
 90
        6
176
     1
 90
        2
176
     1
 62
     7
176
     1
 90
        5
176
     1
 90
        0
176
     1
 90
        0
176
     1
290
     0
176
     1
 90
        1
176
     1
 40
0.0
176
     1
 90
        0
176
     1
290
     1
176
     1
290
     1
176
     1
290
     0
176
     1
290
     0
176
     1
290
     0
176
     1
290
     0
176
     1
290
     0
176
     1
290
     0
176
     1
290
     0
176
     1
 90
       50
176
     1
 40
0.0
176
     1
 40
1.0
176
     1
 90
        0
176
     1
 62
    18
420
        0
176
     1
 90
       50
176
     1
 90
        3
176
     1
 62
     5
420
      255
176
     1
290
     0
176
     1
 90
       50
176
     1
 90
       50
176
     1
 90
       50
176
     1
290
     0
176
     1
 90
       50
176
     1
 62
   256
176
     0
 40
1.0
176
     0
 90
        2
176
     1
  1
strokes_ogs.tif
176
     1
290
     0
176
     1
 40
1.0
176
     1
 40
1.0
176
     1
  0
VISUALSTYLE
  5
10158
102
{ACAD_REACTORS
330
10150
102
}
330
10150
100
AcDbVisualStyle
  2
Basic
 70
     7
177
     3
291
     1
 70
    58
 90
        1
176
     1
 90
        0
176
     1
 90
        1
176
     1
 90
        0
176
     1
 40
0.6
176
     1
 40
30.0
176
     1
 62
     7
420
 16777215
176
     1
 90
        0
176
     1
 90
        4
176
     1
 62
     7
176
     1
 62
   257
176
     1
 90
        1
176
     1
 90
        1
176
     1
 40
1.0
176
     1
 90
        8
176
     1
 62
     7
176
     1
 40
1.0
176
     1
 90
        1
176
     1
 90
        6
176
     1
 90
        2
176
     1
 62
     7
176
     1
 90
        5
176
     1
 90
        0
176
     1
 90
        0
176
     1
290
     0
176
     1
 90
        1
176
     1
 40
0.0
176
     1
 90
        0
176
     1
290
     0
176
     1
290
     1
176
     1
290
     1
176
     1
290
     0
176
     1
290
     0
176
     1
290
     0
176
     1
290
     0
176
     1
290
     0
176
     1
290
     0
176
     1
 90
       50
176
     1
 40
0.0
176
     1
 40
1.0
176
     1
 90
        0
176
     1
 62
    18
420
        0
176
     1
 90
       50
176
     1
 90
        3
176
     1
 62
     5
420
      255
176
     1
290
     0
176
     1
 90
       50
176
     1
 90
       50
176
     1
 90
       50
176
     1
290
     0
176
     1
 90
       50
176
     1
 62
   256
176
     0
 40
1.0
176
     0
 90
        2
176
     1
  1
strokes_ogs.tif
176
     1
290
     0
176
     1
 40
1.0
176
     1
 40
1.0
176
     1
  0
VISUALSTYLE
  5
1015C
102
{ACAD_REACTORS
330
10150
102
}
330
10150
100
AcDbVisualStyle
  2
Brighten
 70
    12
177
     3
291
     1
 70
    58
 90
        2
176
     1
 90
        2
176
     1
 90
        0
176
     1
 90
        0
176
     1
 40
0.6
176
     1
 40
30.0
176
     1
 62
     7
420
 16777215
176
     1
 90
        1
176
     1
 90
        4
176
     1
 62
     7
176
     1
 62
   257
176
     1
 90
        1
176
     1
 90
        1
176
     1
 40
1.0
176
     1
 90
        8
176
     1
 62
     7
176
     1
 40
1.0
176
     1
 90
        1
176
     1
 90
        6
176
     1
 90
        2
176
     1
 62
     7
176
     1
 90
        5
176
     1
 90
        0
176
     1
 90
        0
176
     1
290
     0
176
     1
 90
        1
176
     1
 40
50.0
176
     1
 90
        0
176
     1
290
     0
176
     1
290
     1
176
     1
290
     1
176
     1
290
     0
176
     1
290
     0
176
     1
290
     0
176
     1
290
     0
176
     1
290
     0
176
     1
290
     0
176
     1
 90
       50
176
     1
 40
0.0
176
     1
 40
1.0
176
     1
 90
        0
176
     1
 62
    18
420
        0
176
     1
 90
       50
176
     1
 90
        3
176
     1
 62
     5
420
      255
176
     1
290
     0
176
     1
 90
       50
176
     1
 90
       50
176
     1
 90
       50
176
     1
290
     0
176
     1
 90
       50
176
     1
 62
   256
176
     0
 40
1.0
176
     0
 90
        2
176
     1
  1
strokes_ogs.tif
176
     1
290
     0
176
     1
 40
1.0
176
     1
 40
1.0
176
     1
  0
VISUALSTYLE
  5
10160
102
{ACAD_REACTORS
330
10150
102
}
330
10150
100
AcDbVisualStyle
  2
ColorChange
 70
    16
177
     3
291
     1
 70
    58
 90
        2
176
     1
 90
        2
176
     1
 90
        3
176
     1
 90
        0
176
     1
 40
0.6
176
     1
 40
30.0
176
     1
 62
     8
420
  8421504
176
     1
 90
        1
176
     1
 90
        4
176
     1
 62
     7
176
     1
 62
   257
176
     1
 90
        1
176
     1
 90
        1
176
     1
 40
1.0
176
     1
 90
        8
176
     1
 62
     8
420
  8421504
176
     1
 40
1.0
176
     1
 90
        1
176
     1
 90
        6
176
     1
 90
        2
176
     1
 62
     7
176
     1
 90
        5
176
     1
 90
        0
176
     1
 90
        0
176
     1
290
     0
176
     1
 90
        1
176
     1
 40
0.0
176
     1
 90
        0
176
     1
290
     0
176
     1
290
     1
176
     1
290
     1
176
     1
290
     0
176
     1
290
     0
176
     1
290
     0
176
     1
290
     0
176
     1
290
     0
176
     1
290
     0
176
     1
 90
       50
176
     1
 40
0.0
176
     1
 40
1.0
176
     1
 90
        0
176
     1
 62
    18
420
        0
176
     1
 90
       50
176
     1
 90
        3
176
     1
 62
     5
420
      255
176
     1
290
     0
176
     1
 90
       50
176
     1
 90
       50
176
     1
 90
       50
176
     1
290
     0
176
     1
 90
       50
176
     1
 62
   256
176
     0
 40
1.0
176
     0
 90
        2
176
     1
  1
strokes_ogs.tif
176
     1
290
     0
176
     1
 40
1.0
176
     1
 40
1.0
176
     1
  0
VISUALSTYLE
  5
1015A
102
{ACAD_REACTORS
330
10150
102
}
330
10150
100
AcDbVisualStyle
  2
Conceptual
 70
     9
177
     3
291
     0
 70
    58
 90
        3
176
     1
 90
        2
176
     1
 90
        0
176
     1
 90
        0
176
     1
 40
0.6
176
     1
 40
30.0
176
     1
 62
     7
420
 16777215
176
     1
 90
        2
176
     1
 90
        2
176
     1
 62
     7
176
     1
 62
   257
176
     1
 90
        1
176
     1
 90
        1
176
     1
 40
179.0
176
     1
 90
        8
176
     1
 62
     7
176
     1
 40
1.0
176
     1
 90
        1
176
     1
 90
        6
176
     1
 90
        2
176
     1
 62
     7
176
     1
 90
        3
176
     1
 90
        0
176
     1
 90
        0
176
     1
290
     0
176
     1
 90
        1
176
     1
 40
0.0
176
     1
 90
        0
176
     1
290
     0
176
     1
290
     1
176
     1
290
     1
176
     1
290
     0
176
     1
290
     0
176
     1
290
     0
176
     1
290
     0
176
     1
290
     0
176
     1
290
     0
176
     1
 90
       50
176
     1
 40
0.0
176
     1
 40
1.0
176
     1
 90
        0
176
     1
 62
    18
420
        0
176
     1
 90
       50
176
     1
 90
        3
176
     1
 62
     5
420
      255
176
     1
290
     0
176
     1
 90
       50
176
     1
 90
       50
176
     1
 90
       50
176
     1
290
     0
176
     1
 90
       50
176
     1
 62
   256
176
     0
 40
1.0
176
     0
 90
        2
176
     1
  1
strokes_ogs.tif
176
     1
290
     0
176
     1
 40
1.0
176
     1
 40
1.0
176
     1
  0
VISUALSTYLE
  5
1015B
102
{ACAD_REACTORS
330
10150
102
}
330
10150
100
AcDbVisualStyle
  2
Dim
 70
    11
177
     3
291
     1
 70
    58
 90
        2
176
     1
 90
        2
176
     1
 90
        0
176
     1
 90
        0
176
     1
 40
0.6
176
     1
 40
30.0
176
     1
 62
     7
420
 16777215
176
     1
 90
        1
176
     1
 90
        4
176
     1
 62
     7
176
     1
 62
   257
176
     1
 90
        1
176
     1
 90
        1
176
     1
 40
1.0
176
     1
 90
        8
176
     1
 62
     7
176
     1
 40
1.0
176
     1
 90
        1
176
     1
 90
        6
176
     1
 90
        2
176
     1
 62
     7
176
     1
 90
        5
176
     1
 90
        0
176
     1
 90
        0
176
     1
290
     0
176
     1
 90
        1
176
     1
 40
-50.0
176
     1
 90
        0
176
     1
290
     0
176
     1
290
     1
176
     1
290
     1
176
     1
290
     0
176
     1
290
     0
176
     1
290
     0
176
     1
290
     0
176
     1
290
     0
176
     1
290
     0
176
     1
 90
       50
176
     1
 40
0.0
176
     1
 40
1.0
176
     1
 90
        0
176
     1
 62
    18
420
        0
176
     1
 90
       50
176
     1
 90
        3
176
     1
 62
     5
420
      255
176
     1
290
     0
176
     1
 90
       50
176
     1
 90
       50
176
     1
 90
       50
176
     1
290
     0
176
     1
 90
       50
176
     1
 62
   256
176
     0
 40
1.0
176
     0
 90
        2
176
     1
  1
strokes_ogs.tif
176
     1
290
     0
176
     1
 40
1.0
176
     1
 40
1.0
176
     1
  0
VISUALSTYLE
  5
10163
102
{ACAD_REACTORS
330
10150
102
}
330
10150
100
AcDbVisualStyle
  2
EdgeColorOff
 70
    22
177
     3
291
     1
 70
    58
 90
        2
176
     0
 90
        2
176
     0
 90
        0
176
     0
 90
        0
176
     0
 40
0.6
176
     0
 40
30.0
176
     0
 62
     7
420
 16777215
176
     0
 90
        1
176
     0
 90
        4
176
     0
 62
     7
176
     0
 62
   257
176
     0
 90
        1
176
     0
 90
        1
176
     0
 40
1.0
176
     0
 90
        8
176
     2
 62
     7
176
     0
 40
1.0
176
     0
 90
        1
176
     0
 90
        6
176
     0
 90
        2
176
     0
 62
     7
176
     0
 90
        5
176
     0
 90
        0
176
     0
 90
        0
176
     0
290
     0
176
     0
 90
        1
176
     0
 40
0.0
176
     0
 90
        0
176
     0
290
     0
176
     0
290
     1
176
     0
290
     1
176
     0
290
     0
176
     0
290
     0
176
     0
290
     0
176
     0
290
     0
176
     0
290
     0
176
     0
290
     0
176
     0
 90
       50
176
     0
 40
0.0
176
     0
 40
1.0
176
     0
 90
        0
176
     0
 62
    18
420
        0
176
     0
 90
       50
176
     0
 90
        3
176
     0
 62
     5
420
      255
176
     0
290
     0
176
     0
 90
       50
176
     0
 90
       50
176
     0
 90
       50
176
     0
290
     0
176
     0
 90
       50
176
     0
 62
   256
176
     0
 40
1.0
176
     0
 90
        2
176
     0
  1
strokes_ogs.tif
176
     0
290
     0
176
     0
 40
1.0
176
     0
 40
1.0
176
     0
  0
VISUALSTYLE
  5
1015F
102
{ACAD_REACTORS
330
10150
102
}
330
10150
100
AcDbVisualStyle
  2
Facepattern
 70
    15
177
     3
291
     1
 70
    58
 90
        2
176
     1
 90
        2
176
     1
 90
        0
176
     1
 90
        0
176
     1
 40
0.6
176
     1
 40
30.0
176
     1
 62
     7
420
 16777215
176
     1
 90
        1
176
     1
 90
        4
176
     1
 62
     7
176
     1
 62
   257
176
     1
 90
        1
176
     1
 90
        1
176
     1
 40
1.0
176
     1
 90
        8
176
     1
 62
     7
176
     1
 40
1.0
176
     1
 90
        1
176
     1
 90
        6
176
     1
 90
        2
176
     1
 62
     7
176
     1
 90
        5
176
     1
 90
        0
176
     1
 90
        0
176
     1
290
     0
176
     1
 90
        1
176
     1
 40
0.0
176
     1
 90
        0
176
     1
290
     0
176
     1
290
     1
176
     1
290
     1
176
     1
290
     0
176
     1
290
     0
176
     1
290
     0
176
     1
290
     0
176
     1
290
     0
176
     1
290
     0
176
     1
 90
       50
176
     1
 40
0.0
176
     1
 40
1.0
176
     1
 90
        0
176
     1
 62
    18
420
        0
176
     1
 90
       50
176
     1
 90
        3
176
     1
 62
     5
420
      255
176
     1
290
     0
176
     1
 90
       50
176
     1
 90
       50
176
     1
 90
       50
176
     1
290
     0
176
     1
 90
       50
176
     1
 62
   256
176
     0
 40
1.0
176
     0
 90
        2
176
     1
  1
strokes_ogs.tif
176
     1
290
     0
176
     1
 40
1.0
176
     1
 40
1.0
176
     1
  0
VISUALSTYLE
  5
10151
102
{ACAD_REACTORS
330
10150
102
}
330
10150
100
AcDbVisualStyle
  2
Flat
 70
     0
177
     3
291
     1
 70
    58
 90
        2
176
     1
 90
        1
176
     1
 90
        1
176
     1
 90
        2
176
     1
 40
0.6
176
     1
 40
30.0
176
     1
 62
     7
420
 16777215
176
     1
 90
        0
176
     1
 90
        0
176
     1
 62
     7
176
     1
 62
   257
176
     1
 90
        1
176
     1
 90
        1
176
     1
 40
1.0
176
     1
 90
        8
176
     1
 62
     7
176
     1
 40
1.0
176
     1
 90
        1
176
     1
 90
        6
176
     1
 90
        2
176
     1
 62
     7
176
     1
 90
        5
176
     1
 90
        0
176
     1
 90
        0
176
     1
290
     0
176
     1
 90
       13
176
     1
 40
0.0
176
     1
 90
        0
176
     1
290
     0
176
     1
290
     1
176
     1
290
     1
176
     1
290
     0
176
     1
290
     0
176
     1
290
     0
176
     1
290
     0
176
     1
290
     0
176
     1
290
     0
176
     1
 90
       50
176
     1
 40
0.0
176
     1
 40
1.0
176
     1
 90
        0
176
     1
 62
    18
420
        0
176
     1
 90
       50
176
     1
 90
        3
176
     1
 62
     5
420
      255
176
     1
290
     0
176
     1
 90
       50
176
     1
 90
       50
176
     1
 90
       50
176
     1
290
     0
176
     1
 90
       50
176
     1
 62
   256
176
     0
 40
1.0
176
     0
 90
        2
176
     1
  1
strokes_ogs.tif
176
     1
290
     0
176
     1
 40
1.0
176
     1
 40
1.0
176
     1
  0
VISUALSTYLE
  5
10152
102
{ACAD_REACTORS
330
10150
102
}
330
10150
100
AcDbVisualStyle
  2
FlatWithEdges
 70
     1
177
     3
291
     1
 70
    58
 90
        2
176
     1
 90
        1
176
     1
 90
        1
176
     1
 90
        2
176
     1
 40
0.6
176
     1
 40
30.0
176
     1
 62
     7
420
 16777215
176
     1
 90
        1
176
     1
 90
        0
176
     1
 62
     7
176
     1
 62
   257
176
     1
 90
        1
176
     1
 90
        1
176
     1
 40
1.0
176
     1
 90
        0
176
     1
 62
   257
176
     1
 40
1.0
176
     1
 90
        1
176
     1
 90
        6
176
     1
 90
        2
176
     1
 62
     7
176
     1
 90
        5
176
     1
 90
        0
176
     1
 90
        0
176
     1
290
     0
176
     1
 90
       13
176
     1
 40
0.0
176
     1
 90
        0
176
     1
290
     0
176
     1
290
     1
176
     1
290
     1
176
     1
290
     0
176
     1
290
     0
176
     1
290
     0
176
     1
290
     0
176
     1
290
     0
176
     1
290
     0
176
     1
 90
       50
176
     1
 40
0.0
176
     1
 40
1.0
176
     1
 90
        0
176
     1
 62
    18
420
        0
176
     1
 90
       50
176
     1
 90
        3
176
     1
 62
     5
420
      255
176
     1
290
     0
176
     1
 90
       50
176
     1
 90
       50
176
     1
 90
       50
176
     1
290
     0
176
     1
 90
       50
176
     1
 62
   256
176
     0
 40
1.0
176
     0
 90
        2
176
     1
  1
strokes_ogs.tif
176
     1
290
     0
176
     1
 40
1.0
176
     1
 40
1.0
176
     1
  0
VISUALSTYLE
  5
10153
102
{ACAD_REACTORS
330
10150
102
}
330
10150
100
AcDbVisualStyle
  2
Gouraud
 70
     2
177
     3
291
     1
 70
    58
 90
        2
176
     1
 90
        2
176
     1
 90
        1
176
     1
 90
        2
176
     1
 40
0.6
176
     1
 40
30.0
176
     1
 62
     7
420
 16777215
176
     1
 90
        0
176
     1
 90
        0
176
     1
 62
     7
176
     1
 62
   257
176
     1
 90
        1
176
     1
 90
        1
176
     1
 40
1.0
176
     1
 90
        0
176
     1
 62
     7
176
     1
 40
1.0
176
     1
 90
        1
176
     1
 90
        6
176
     1
 90
        2
176
     1
 62
     7
176
     1
 90
        5
176
     1
 90
        0
176
     1
 90
        0
176
     1
290
     0
176
     1
 90
       13
176
     1
 40
0.0
176
     1
 90
        0
176
     1
290
     0
176
     1
290
     1
176
     1
290
     1
176
     1
290
     0
176
     1
290
     0
176
     1
290
     0
176
     1
290
     0
176
     1
290
     0
176
     1
290
     0
176
     1
 90
       50
176
     1
 40
0.0
176
     1
 40
1.0
176
     1
 90
        0
176
     1
 62
    18
420
        0
176
     1
 90
       50
176
     1
 90
        3
176
     1
 62
     5
420
      255
176
     1
290
     0
176
     1
 90
       50
176
     1
 90
       50
176
     1
 90
       50
176
     1
290
     0
176
     1
 90
       50
176
     1
 62
   256
176
     0
 40
1.0
176
     0
 90
        2
176
     1
  1
strokes_ogs.tif
176
     1
290
     0
176
     1
 40
1.0
176
     1
 40
1.0
176
     1
  0
VISUALSTYLE
  5
10154
102
{ACAD_REACTORS
330
10150
102
}
330
10150
100
AcDbVisualStyle
  2
GouraudWithEdges
 70
     3
177
     3
291
     1
 70
    58
 90
        2
176
     1
 90
        2
176
     1
 90
        1
176
     1
 90
        2
176
     1
 40
0.6
176
     1
 40
30.0
176
     1
 62
     7
420
 16777215
176
     1
 90
        1
176
     1
 90
        0
176
     1
 62
     7
176
     1
 62
   257
176
     1
 90
        1
176
     1
 90
        1
176
     1
 40
1.0
176
     1
 90
        0
176
     1
 62
   257
176
     1
 40
1.0
176
     1
 90
        1
176
     1
 90
        6
176
     1
 90
        2
176
     1
 62
     7
176
     1
 90
        5
176
     1
 90
        0
176
     1
 90
        0
176
     1
290
     0
176
     1
 90
       13
176
     1
 40
0.0
176
     1
 90
        0
176
     1
290
     0
176
     1
290
     1
176
     1
290
     1
176
     1
290
     0
176
     1
290
     0
176
     1
290
     0
176
     1
290
     0
176
     1
290
     0
176
     1
290
     0
176
     1
 90
       50
176
     1
 40
0.0
176
     1
 40
1.0
176
     1
 90
        0
176
     1
 62
    18
420
        0
176
     1
 90
       50
176
     1
 90
        3
176
     1
 62
     5
420
      255
176
     1
290
     0
176
     1
 90
       50
176
     1
 90
       50
176
     1
 90
       50
176
     1
290
     0
176
     1
 90
       50
176
     1
 62
   256
176
     0
 40
1.0
176
     0
 90
        2
176
     1
  1
strokes_ogs.tif
176
     1
290
     0
176
     1
 40
1.0
176
     1
 40
1.0
176
     1
  0
VISUALSTYLE
  5
10157
102
{ACAD_REACTORS
330
10150
102
}
330
10150
100
AcDbVisualStyle
  2
Hidden
 70
     6
177
     3
291
     0
 70
    58
 90
        1
176
     1
 90
        2
176
     1
 90
        2
176
     1
 90
        0
176
     1
 40
0.6
176
     1
 40
30.0
176
     1
 62
     7
420
 16777215
176
     1
 90
        2
176
     1
 90
        2
176
     1
 62
     7
176
     1
 62
   257
176
     1
 90
        2
176
     1
 90
        1
176
     1
 40
40.0
176
     1
 90
        0
176
     1
 62
   257
176
     1
 40
1.0
176
     1
 90
        1
176
     1
 90
        6
176
     1
 90
        2
176
     1
 62
     7
176
     1
 90
        3
176
     1
 90
        0
176
     1
 90
        0
176
     1
290
     0
176
     1
 90
        1
176
     1
 40
0.0
176
     1
 90
        0
176
     1
290
     0
176
     1
290
     1
176
     1
290
     1
176
     1
290
     0
176
     1
290
     0
176
     1
290
     0
176
     1
290
     0
176
     1
290
     0
176
     1
290
     0
176
     1
 90
       50
176
     1
 40
0.0
176
     1
 40
1.0
176
     1
 90
        0
176
     1
 62
    18
420
        0
176
     1
 90
       50
176
     1
 90
        3
176
     1
 62
     5
420
      255
176
     1
290
     0
176
     1
 90
       50
176
     1
 90
       50
176
     1
 90
       50
176
     1
290
     0
176
     1
 90
       50
176
     1
 62
   256
176
     0
 40
1.0
176
     0
 90
        2
176
     1
  1
strokes_ogs.tif
176
     1
290
     0
176
     1
 40
1.0
176
     1
 40
1.0
176
     1
  0
VISUALSTYLE
  5
10161
102
{ACAD_REACTORS
330
10150
102
}
330
10150
100
AcDbVisualStyle
  2
JitterOff
 70
    20
177
     3
291
     1
 70
    58
 90
        2
176
     0
 90
        2
176
     0
 90
        0
176
     0
 90
        0
176
     0
 40
0.6
176
     0
 40
30.0
176
     0
 62
     7
420
 16777215
176
     0
 90
        1
176
     0
 90
        4
176
     0
 62
     7
176
     0
 62
   257
176
     0
 90
        1
176
     0
 90
        1
176
     0
 40
1.0
176
     0
 90
       10
176
     2
 62
     7
176
     0
 40
1.0
176
     0
 90
        1
176
     0
 90
        6
176
     0
 90
        2
176
     0
 62
     7
176
     0
 90
        5
176
     0
 90
        0
176
     0
 90
        0
176
     0
290
     0
176
     0
 90
        1
176
     0
 40
0.0
176
     0
 90
        0
176
     0
290
     0
176
     0
290
     1
176
     0
290
     1
176
     0
290
     0
176
     0
290
     0
176
     0
290
     0
176
     0
290
     0
176
     0
290
     0
176
     0
290
     0
176
     0
 90
       50
176
     0
 40
0.0
176
     0
 40
1.0
176
     0
 90
        0
176
     0
 62
    18
420
        0
176
     0
 90
       50
176
     0
 90
        3
176
     0
 62
     5
420
      255
176
     0
290
     0
176
     0
 90
       50
176
     0
 90
       50
176
     0
 90
       50
176
     0
290
     0
176
     0
 90
       50
176
     0
 62
   256
176
     0
 40
1.0
176
     0
 90
        2
176
     0
  1
strokes_ogs.tif
176
     0
290
     0
176
     0
 40
1.0
176
     0
 40
1.0
176
     0
  0
VISUALSTYLE
  5
1015E
102
{ACAD_REACTORS
330
10150
102
}
330
10150
100
AcDbVisualStyle
  2
Linepattern
 70
    14
177
     3
291
     1
 70
    58
 90
        2
176
     1
 90
        2
176
     1
 90
        0
176
     1
 90
        0
176
     1
 40
0.6
176
     1
 40
30.0
176
     1
 62
     7
420
 16777215
176
     1
 90
        1
176
     1
 90
        4
176
     1
 62
     7
176
     1
 62
   257
176
     1
 90
        7
176
     1
 90
        7
176
     1
 40
1.0
176
     1
 90
        8
176
     1
 62
     7
176
     1
 40
1.0
176
     1
 90
        1
176
     1
 90
        6
176
     1
 90
        2
176
     1
 62
     7
176
     1
 90
        5
176
     1
 90
        0
176
     1
 90
        0
176
     1
290
     0
176
     1
 90
        1
176
     1
 40
0.0
176
     1
 90
        0
176
     1
290
     0
176
     1
290
     1
176
     1
290
     1
176
     1
290
     0
176
     1
290
     0
176
     1
290
     0
176
     1
290
     0
176
     1
290
     0
176
     1
290
     0
176
     1
 90
       50
176
     1
 40
0.0
176
     1
 40
1.0
176
     1
 90
        0
176
     1
 62
    18
420
        0
176
     1
 90
       50
176
     1
 90
        3
176
     1
 62
     5
420
      255
176
     1
290
     0
176
     1
 90
       50
176
     1
 90
       50
176
     1
 90
       50
176
     1
290
     0
176
     1
 90
       50
176
     1
 62
   256
176
     0
 40
1.0
176
     0
 90
        2
176
     1
  1
strokes_ogs.tif
176
     1
290
     0
176
     1
 40
1.0
176
     1
 40
1.0
176
     1
  0
VISUALSTYLE
  5
10162
102
{ACAD_REACTORS
330
10150
102
}
330
10150
100
AcDbVisualStyle
  2
OverhangOff
 70
    21
177
     3
291
     1
 70
    58
 90
        2
176
     0
 90
        2
176
     0
 90
        0
176
     0
 90
        0
176
     0
 40
0.6
176
     0
 40
30.0
176
     0
 62
     7
420
 16777215
176
     0
 90
        1
176
     0
 90
        4
176
     0
 62
     7
176
     0
 62
   257
176
     0
 90
        1
176
     0
 90
        1
176
     0
 40
1.0
176
     0
 90
        9
176
     2
 62
     7
176
     0
 40
1.0
176
     0
 90
        1
176
     0
 90
        6
176
     0
 90
        2
176
     0
 62
     7
176
     0
 90
        5
176
     0
 90
        0
176
     0
 90
        0
176
     0
290
     0
176
     0
 90
        1
176
     0
 40
0.0
176
     0
 90
        0
176
     0
290
     0
176
     0
290
     1
176
     0
290
     1
176
     0
290
     0
176
     0
290
     0
176
     0
290
     0
176
     0
290
     0
176
     0
290
     0
176
     0
290
     0
176
     0
 90
       50
176
     0
 40
0.0
176
     0
 40
1.0
176
     0
 90
        0
176
     0
 62
    18
420
        0
176
     0
 90
       50
176
     0
 90
        3
176
     0
 62
     5
420
      255
176
     0
290
     0
176
     0
 90
       50
176
     0
 90
       50
176
     0
 90
       50
176
     0
290
     0
176
     0
 90
       50
176
     0
 62
   256
176
     0
 40
1.0
176
     0
 90
        2
176
     0
  1
strokes_ogs.tif
176
     0
290
     0
176
     0
 40
1.0
176
     0
 40
1.0
176
     0
  0
VISUALSTYLE
  5
10159
102
{ACAD_REACTORS
330
10150
102
}
330
10150
100
AcDbVisualStyle
  2
Realistic
 70
     8
177
     3
291
     0
 70
    58
 90
        2
176
     1
 90
        3
176
     1
 90
        0
176
     1
 90
        2
176
     1
 40
0.6
176
     1
 40
30.0
176
     1
 62
     7
420
 16777215
176
     1
 90
        0
176
     1
 90
        0
176
     1
 62
     7
176
     1
 62
   257
176
     1
 90
        1
176
     1
 90
        1
176
     1
 40
1.0
176
     1
 90
        8
176
     1
 62
   257
176
     1
 40
1.0
176
     1
 90
        1
176
     1
 90
        6
176
     1
 90
        2
176
     1
 62
     7
176
     1
 90
        3
176
     1
 90
        0
176
     1
 90
        0
176
     1
290
     0
176
     1
 90
       13
176
     1
 40
0.0
176
     1
 90
        0
176
     1
290
     0
176
     1
290
     1
176
     1
290
     1
176
     1
290
     0
176
     1
290
     0
176
     1
290
     0
176
     1
290
     0
176
     1
290
     0
176
     1
290
     0
176
     1
 90
       50
176
     1
 40
0.0
176
     1
 40
1.0
176
     1
 90
        0
176
     1
 62
    18
420
        0
176
     1
 90
       50
176
     1
 90
        3
176
     1
 62
     5
420
      255
176
     1
290
     0
176
     1
 90
       50
176
     1
 90
       50
176
     1
 90
       50
176
     1
290
     0
176
     1
 90
       50
176
     1
 62
   256
176
     0
 40
1.0
176
     0
 90
        2
176
     1
  1
strokes_ogs.tif
176
     1
290
     0
176
     1
 40
1.0
176
     1
 40
1.0
176
     1
  0
VISUALSTYLE
  5
10168
102
{ACAD_REACTORS
330
10150
102
}
330
10150
100
AcDbVisualStyle
  2
Shaded
 70
    27
177
     3
291
     0
 70
    58
 90
        2
176
     1
 90
        2
176
     1
 90
        1
176
     1
 90
        2
176
     1
 40
0.6
176
     1
 40
30.0
176
     1
 62
     7
420
 16777215
176
     1
 90
        0
176
     1
 90
        4
176
     1
 62
     7
176
     1
 62
   257
176
     1
 90
        1
176
     1
 90
        1
176
     1
 40
1.0
176
     1
 90
        8
176
     1
 62
   257
176
     1
 40
1.0
176
     1
 90
        1
176
     1
 90
        6
176
     1
 90
        2
176
     1
 62
     8
420
  7895160
176
     1
 90
        3
176
     1
 90
        0
176
     1
 90
        0
176
     1
290
     0
176
     1
 90
        5
176
     1
 40
0.0
176
     1
 90
        0
176
     1
290
     0
176
     1
290
     1
176
     1
290
     1
176
     1
290
     0
176
     1
290
     0
176
     1
290
     0
176
     1
290
     0
176
     1
290
     0
176
     1
290
     0
176
     1
 90
       50
176
     1
 40
0.0
176
     1
 40
1.0
176
     1
 90
        0
176
     1
 62
    18
420
        0
176
     1
 90
       50
176
     1
 90
        3
176
     1
 62
     5
420
      255
176
     1
290
     0
176
     1
 90
       50
176
     1
 90
       50
176
     1
 90
       50
176
     1
290
     0
176
     1
 90
       50
176
     1
 62
   256
176
     0
 40
1.0
176
     0
 90
        2
176
     1
  1
strokes_ogs.tif
176
     1
290
     0
176
     1
 40
1.0
176
     1
 40
1.0
176
     1
  0
VISUALSTYLE
  5
10167
102
{ACAD_REACTORS
330
10150
102
}
330
10150
100
AcDbVisualStyle
  2
Shaded with edges
 70
    26
177
     3
291
     0
 70
    58
 90
        2
176
     1
 90
        2
176
     1
 90
        1
176
     1
 90
        2
176
     1
 40
0.6
176
     1
 40
30.0
176
     1
 62
     7
420
 16777215
176
     1
 90
        1
176
     1
 90
       10
176
     1
 62
     7
176
     1
 62
   257
176
     1
 90
        2
176
     1
 90
        1
176
     1
 40
1.0
176
     1
 90
        8
176
     1
 62
   257
176
     1
 40
1.0
176
     1
 90
        1
176
     1
 90
        6
176
     1
 90
        2
176
     1
 62
     7
176
     1
 90
        3
176
     1
 90
        0
176
     1
 90
        0
176
     1
290
     0
176
     1
 90
        5
176
     1
 40
0.0
176
     1
 90
        0
176
     1
290
     0
176
     1
290
     1
176
     1
290
     1
176
     1
290
     0
176
     1
290
     0
176
     1
290
     0
176
     1
290
     0
176
     1
290
     0
176
     1
290
     0
176
     1
 90
       50
176
     1
 40
0.0
176
     1
 40
1.0
176
     1
 90
        0
176
     1
 62
    18
420
        0
176
     1
 90
       50
176
     1
 90
        3
176
     1
 62
     5
420
      255
176
     1
290
     0
176
     1
 90
       50
176
     1
 90
       50
176
     1
 90
       50
176
     1
290
     0
176
     1
 90
       50
176
     1
 62
   256
176
     0
 40
1.0
176
     0
 90
        2
176
     1
  1
strokes_ogs.tif
176
     1
290
     0
176
     1
 40
1.0
176
     1
 40
1.0
176
     1
  0
VISUALSTYLE
  5
10164
102
{ACAD_REACTORS
330
10150
102
}
330
10150
100
AcDbVisualStyle
  2
Shades of Gray
 70
    23
177
     3
291
     0
 70
    58
 90
        2
176
     1
 90
        2
176
     1
 90
        3
176
     1
 90
        0
176
     1
 40
0.6
176
     1
 40
30.0
176
     1
 62
     7
420
 16777215
176
     1
 90
        2
176
     1
 90
        2
176
     1
 62
     7
176
     1
 62
     7
176
     1
 90
        1
176
     1
 90
        1
176
     1
 40
40.0
176
     1
 90
        8
176
     1
 62
     7
176
     1
 40
1.0
176
     1
 90
        1
176
     1
 90
        6
176
     1
 90
        2
176
     1
 62
     7
176
     1
 90
        3
176
     1
 90
        0
176
     1
 90
        0
176
     1
290
     0
176
     1
 90
        1
176
     1
 40
0.0
176
     1
 90
        0
176
     1
290
     0
176
     1
290
     1
176
     1
290
     1
176
     1
290
     0
176
     1
290
     0
176
     1
290
     0
176
     1
290
     0
176
     1
290
     0
176
     1
290
     0
176
     1
 90
       50
176
     1
 40
0.0
176
     1
 40
1.0
176
     1
 90
        0
176
     1
 62
    18
420
        0
176
     1
 90
       50
176
     1
 90
        3
176
     1
 62
     5
420
      255
176
     1
290
     0
176
     1
 90
       50
176
     1
 90
       50
176
     1
 90
       50
176
     1
290
     0
176
     1
 90
       50
176
     1
 62
   256
176
     0
 40
1.0
176
     0
 90
        2
176
     1
  1
strokes_ogs.tif
176
     1
290
     0
176
     1
 40
1.0
176
     1
 40
1.0
176
     1
  0
VISUALSTYLE
  5
10165
102
{ACAD_REACTORS
330
10150
102
}
330
10150
100
AcDbVisualStyle
  2
Sketchy
 70
    24
177
     3
291
     0
 70
    58
 90
        1
176
     1
 90
        2
176
     1
 90
        2
176
     1
 90
        0
176
     1
 40
0.6
176
     1
 40
30.0
176
     1
 62
     7
420
 16777215
176
     1
 90
        2
176
     1
 90
        2
176
     1
 62
     7
176
     1
 62
     7
176
     1
 90
        1
176
     1
 90
        1
176
     1
 40
40.0
176
     1
 90
       11
176
     1
 62
     7
176
     1
 40
1.0
176
     1
 90
        1
176
     1
 90
        6
176
     1
 90
        2
176
     1
 62
     7
176
     1
 90
        6
176
     1
 90
        0
176
     1
 90
        0
176
     1
290
     0
176
     1
 90
        1
176
     1
 40
0.0
176
     1
 90
        0
176
     1
290
     0
176
     1
290
     1
176
     1
290
     1
176
     1
290
     0
176
     1
290
     0
176
     1
290
     0
176
     1
290
     0
176
     1
290
     0
176
     1
290
     0
176
     1
 90
       50
176
     1
 40
0.0
176
     1
 40
1.0
176
     1
 90
        0
176
     1
 62
    18
420
        0
176
     1
 90
       50
176
     1
 90
        3
176
     1
 62
     5
420
      255
176
     1
290
     0
176
     1
 90
       50
176
     1
 90
       50
176
     1
 90
       50
176
     1
290
     0
176
     1
 90
       50
176
     1
 62
   256
176
     0
 40
1.0
176
     0
 90
        2
176
     1
  1
strokes_ogs.tif
176
     1
290
     0
176
     1
 40
1.0
176
     1
 40
1.0
176
     1
  0
VISUALSTYLE
  5
1015D
102
{ACAD_REACTORS
330
10150
102
}
330
10150
100
AcDbVisualStyle
  2
Thicken
 70
    13
177
     3
291
     1
 70
    58
 90
        2
176
     1
 90
        2
176
     1
 90
        0
176
     1
 90
        0
176
     1
 40
0.6
176
     1
 40
30.0
176
     1
 62
     7
420
 16777215
176
     1
 90
        1
176
     1
 90
        4
176
     1
 62
     7
176
     1
 62
   257
176
     1
 90
        1
176
     1
 90
        1
176
     1
 40
1.0
176
     1
 90
       12
176
     1
 62
     7
176
     1
 40
1.0
176
     1
 90
        1
176
     1
 90
        6
176
     1
 90
        2
176
     1
 62
     7
176
     1
 90
        5
176
     1
 90
        0
176
     1
 90
        0
176
     1
290
     0
176
     1
 90
        1
176
     1
 40
0.0
176
     1
 90
        0
176
     1
290
     0
176
     1
290
     1
176
     1
290
     1
176
     1
290
     0
176
     1
290
     0
176
     1
290
     0
176
     1
290
     0
176
     1
290
     0
176
     1
290
     0
176
     1
 90
       50
176
     1
 40
0.0
176
     1
 40
1.0
176
     1
 90
        0
176
     1
 62
    18
420
        0
176
     1
 90
       50
176
     1
 90
        3
176
     1
 62
     5
420
      255
176
     1
290
     0
176
     1
 90
       50
176
     1
 90
       50
176
     1
 90
       50
176
     1
290
     0
176
     1
 90
       50
176
     1
 62
   256
176
     0
 40
1.0
176
     0
 90
        2
176
     1
  1
strokes_ogs.tif
176
     1
290
     0
176
     1
 40
1.0
176
     1
 40
1.0
176
     1
  0
VISUALSTYLE
  5
10156
102
{ACAD_REACTORS
330
10150
102
}
330
10150
100
AcDbVisualStyle
  2
Wireframe
 70
     5
177
     3
291
     0
 70
    58
 90
        0
176
     1
 90
        2
176
     1
 90
        0
176
     1
 90
        0
176
     1
 40
0.6
176
     1
 40
30.0
176
     1
 62
     7
420
 16777215
176
     1
 90
        1
176
     1
 90
        4
176
     1
 62
     7
176
     1
 62
   257
176
     1
 90
        1
176
     1
 90
        1
176
     1
 40
1.0
176
     1
 90
        0
176
     1
 62
   257
176
     1
 40
1.0
176
     1
 90
        1
176
     1
 90
        6
176
     1
 90
        2
176
     1
 62
     7
176
     1
 90
        3
176
     1
 90
        0
176
     1
 90
        0
176
     1
290
     0
176
     1
 90
        1
176
     1
 40
0.0
176
     1
 90
        0
176
     1
290
     0
176
     1
290
     1
176
     1
290
     1
176
     1
290
     0
176
     1
290
     0
176
     1
290
     0
176
     1
290
     0
176
     1
290
     0
176
     1
290
     0
176
     1
 90
       50
176
     1
 40
0.0
176
     1
 40
1.0
176
     1
 90
        0
176
     1
 62
    18
420
        0
176
     1
 90
       50
176
     1
 90
        3
176
     1
 62
     5
420
      255
176
     1
290
     0
176
     1
 90
       50
176
     1
 90
       50
176
     1
 90
       50
176
     1
290
     0
176
     1
 90
       50
176
     1
 62
   256
176
     0
 40
1.0
176
     0
 90
        2
176
     1
  1
strokes_ogs.tif
176
     1
290
     0
176
     1
 40
1.0
176
     1
 40
1.0
176
     1
  0
VISUALSTYLE
  5
10166
102
{ACAD_REACTORS
330
10150
102
}
330
10150
100
AcDbVisualStyle
  2
X-Ray
 70
    25
177
     3
291
     0
 70
    58
 90
        2
176
     1
 90
        2
176
     1
 90
        1
176
     1
 90
        1
176
     1
 40
0.5
176
     1
 40
30.0
176
     1
 62
     7
420
 16777215
176
     1
 90
        1
176
     1
 90
        0
176
     1
 62
     7
176
     1
 62
   257
176
     1
 90
        1
176
     1
 90
        1
176
     1
 40
1.0
176
     1
 90
        8
176
     1
 62
     7
176
     1
 40
1.0
176
     1
 90
        1
176
     1
 90
        6
176
     1
 90
        2
176
     1
 62
     7
176
     1
 90
        3
176
     1
 90
        0
176
     1
 90
        0
176
     1
290
     0
176
     1
 90
       13
176
     1
 40
0.0
176
     1
 90
        0
176
     1
290
     0
176
     1
290
     1
176
     1
290
     1
176
     1
290
     0
176
     1
290
     0
176
     1
290
     0
176
     1
290
     0
176
     1
290
     0
176
     1
290
     0
176
     1
 90
       50
176
     1
 40
0.0
176
     1
 40
1.0
176
     1
 90
        0
176
     1
 62
    18
420
        0
176
     1
 90
       50
176
     1
 90
        3
176
     1
 62
     5
420
      255
176
     1
290
     0
176
     1
 90
       50
176
     1
 90
       50
176
     1
 90
       50
176
     1
290
     0
176
     1
 90
       50
176
     1
 62
   256
176
     0
 40
1.0
176
     0
 90
        2
176
     1
  1
strokes_ogs.tif
176
     1
290
     0
176
     1
 40
1.0
176
     1
 40
1.0
176
     1
  0
DICTIONARYVAR
  5
10175
102
{ACAD_REACTORS
330
1004D
102
}
330
1004D
100
DictionaryVariables
280
     0
  1
1:1
  0
DICTIONARYVAR
  5
10177
102
{ACAD_REACTORS
330
1004D
102
}
330
1004D
100
DictionaryVariables
280
     0
  1
Standard
  0
DICTIONARYVAR
  5
10176
102
{ACAD_REACTORS
330
1004D
102
}
330
1004D
100
DictionaryVariables
280
     0
  1
Standard
  0
DICTIONARYVAR
  5
10178
102
{ACAD_REACTORS
330
1004D
102
}
330
1004D
100
DictionaryVariables
280
     0
  1
0
  0
DICTIONARY
  5
101BD
330
1016E
100
AcDbDictionary
280
     1
281
     1
  3
ACAD_ROUNDTRIP_2008_TABLESTYLE_CELLSTYLEMAP
360
101BE
  0
CELLSTYLEMAP
  5
101BE
102
{ACAD_REACTORS
330
101BD
102
}
330
101BD
100
AcDbCellStyleMap
 90
        3
300
CELLSTYLE
  1
TABLEFORMAT_BEGIN
 90
        5
170
     1
 91
        0
 92
    32768
 62
   257
 93
        1
300
CONTENTFORMAT
  1
CONTENTFORMAT_BEGIN
 90
        0
 91
        0
 92
        4
 93
        0
300

 40
0.0
140
1.0
 94
        5
 62
     0
340
11
144
6.0
309
CONTENTFORMAT_END
171
     1
301
MARGIN
  1
CELLMARGIN_BEGIN
 40
1.5
 40
1.5
 40
1.5
 40
1.5
 40
1.5
 40
1.5
309
CELLMARGIN_END
 94
        6
 95
        1
302
GRIDFORMAT
  1
GRIDFORMAT_BEGIN
 90
        0
 91
        1
 62
     0
 92
       -2
340
14
 93
        0
 40
0.045
309
GRIDFORMAT_END
 95
        2
302
GRIDFORMAT
  1
GRIDFORMAT_BEGIN
 90
        0
 91
        1
 62
     0
 92
       -2
340
14
 93
        0
 40
0.045
309
GRIDFORMAT_END
 95
        4
302
GRIDFORMAT
  1
GRIDFORMAT_BEGIN
 90
        0
 91
        1
 62
     0
 92
       -2
340
14
 93
        0
 40
0.045
309
GRIDFORMAT_END
 95
        8
302
GRIDFORMAT
  1
GRIDFORMAT_BEGIN
 90
        0
 91
        1
 62
     0
 92
       -2
340
14
 93
        0
 40
0.045
309
GRIDFORMAT_END
 95
       16
302
GRIDFORMAT
  1
GRIDFORMAT_BEGIN
 90
        0
 91
        1
 62
     0
 92
       -2
340
14
 93
        0
 40
0.045
309
GRIDFORMAT_END
 95
       32
302
GRIDFORMAT
  1
GRIDFORMAT_BEGIN
 90
        0
 91
        1
 62
     0
 92
       -2
340
14
 93
        0
 40
0.045
309
GRIDFORMAT_END
309
TABLEFORMAT_END
  1
CELLSTYLE_BEGIN
 90
        1
 91
        1
300
_TITLE
309
CELLSTYLE_END
300
CELLSTYLE
  1
TABLEFORMAT_BEGIN
 90
        5
170
     1
 91
        0
 92
        0
 62
   257
 93
        1
300
CONTENTFORMAT
  1
CONTENTFORMAT_BEGIN
 90
        0
 91
        0
 92
        4
 93
        0
300

 40
0.0
140
1.0
 94
        5
 62
     0
340
11
144
4.5
309
CONTENTFORMAT_END
171
     1
301
MARGIN
  1
CELLMARGIN_BEGIN
 40
1.5
 40
1.5
 40
1.5
 40
1.5
 40
1.5
 40
1.5
309
CELLMARGIN_END
 94
        6
 95
        1
302
GRIDFORMAT
  1
GRIDFORMAT_BEGIN
 90
        0
 91
        1
 62
     0
 92
       -2
340
14
 93
        0
 40
0.045
309
GRIDFORMAT_END
 95
        2
302
GRIDFORMAT
  1
GRIDFORMAT_BEGIN
 90
        0
 91
        1
 62
     0
 92
       -2
340
14
 93
        0
 40
0.045
309
GRIDFORMAT_END
 95
        4
302
GRIDFORMAT
  1
GRIDFORMAT_BEGIN
 90
        0
 91
        1
 62
     0
 92
       -2
340
14
 93
        0
 40
0.045
309
GRIDFORMAT_END
 95
        8
302
GRIDFORMAT
  1
GRIDFORMAT_BEGIN
 90
        0
 91
        1
 62
     0
 92
       -2
340
14
 93
        0
 40
0.045
309
GRIDFORMAT_END
 95
       16
302
GRIDFORMAT
  1
GRIDFORMAT_BEGIN
 90
        0
 91
        1
 62
     0
 92
       -2
340
14
 93
        0
 40
0.045
309
GRIDFORMAT_END
 95
       32
302
GRIDFORMAT
  1
GRIDFORMAT_BEGIN
 90
        0
 91
        1
 62
     0
 92
       -2
340
14
 93
        0
 40
0.045
309
GRIDFORMAT_END
309
TABLEFORMAT_END
  1
CELLSTYLE_BEGIN
 90
        2
 91
        1
300
_HEADER
309
CELLSTYLE_END
300
CELLSTYLE
  1
TABLEFORMAT_BEGIN
 90
        5
170
     1
 91
        0
 92
        0
 62
   257
 93
        1
300
CONTENTFORMAT
  1
CONTENTFORMAT_BEGIN
 90
        0
 91
        0
 92
        4
 93
        0
300

 40
0.0
140
1.0
 94
        2
 62
     0
340
11
144
4.5
309
CONTENTFORMAT_END
171
     1
301
MARGIN
  1
CELLMARGIN_BEGIN
 40
1.5
 40
1.5
 40
1.5
 40
1.5
 40
1.5
 40
1.5
309
CELLMARGIN_END
 94
        6
 95
        1
302
GRIDFORMAT
  1
GRIDFORMAT_BEGIN
 90
        0
 91
        1
 62
     0
 92
       -2
340
14
 93
        0
 40
0.045
309
GRIDFORMAT_END
 95
        2
302
GRIDFORMAT
  1
GRIDFORMAT_BEGIN
 90
        0
 91
        1
 62
     0
 92
       -2
340
14
 93
        0
 40
0.045
309
GRIDFORMAT_END
 95
        4
302
GRIDFORMAT
  1
GRIDFORMAT_BEGIN
 90
        0
 91
        1
 62
     0
 92
       -2
340
14
 93
        0
 40
0.045
309
GRIDFORMAT_END
 95
        8
302
GRIDFORMAT
  1
GRIDFORMAT_BEGIN
 90
        0
 91
        1
 62
     0
 92
       -2
340
14
 93
        0
 40
0.045
309
GRIDFORMAT_END
 95
       16
302
GRIDFORMAT
  1
GRIDFORMAT_BEGIN
 90
        0
 91
        1
 62
     0
 92
       -2
340
14
 93
        0
 40
0.045
309
GRIDFORMAT_END
 95
       32
302
GRIDFORMAT
  1
GRIDFORMAT_BEGIN
 90
        0
 91
        1
 62
     0
 92
       -2
340
14
 93
        0
 40
0.045
309
GRIDFORMAT_END
309
TABLEFORMAT_END
  1
CELLSTYLE_BEGIN
 90
        3
 91
        2
300
_DATA
309
CELLSTYLE_END
  0
ENDSEC
  0
EOF
